<?xml version="1.0" encoding="UTF-8" standalone="no"?>
<!DOCTYPE svg PUBLIC "-//W3C//DTD SVG 1.1//EN"
 "http://www.w3.org/Graphics/SVG/1.1/DTD/svg11.dtd">
<!-- Generated by graphviz version 12.2.1 (20241206.2353)
 -->
<!-- Pages: 1 -->
<svg width="1143pt" height="262pt"
 viewBox="0.00 0.00 1143.00 262.00" xmlns="http://www.w3.org/2000/svg" xmlns:xlink="http://www.w3.org/1999/xlink">
<g id="graph0" class="graph" transform="scale(1 1) rotate(0) translate(4 258)">
<polygon fill="white" stroke="none" points="-4,4 -4,-258 1139,-258 1139,4 -4,4"/>
<!-- 6017969680 -->
<g id="node1" class="node">
<title>6017969680</title>
<polygon fill="none" stroke="black" points="506.5,-102.5 506.5,-151.5 670.5,-151.5 670.5,-102.5 506.5,-102.5"/>
<text text-anchor="middle" x="544.5" y="-121.95" font-family="Times,serif" font-size="14.00">x1w1x2w2</text>
<polyline fill="none" stroke="black" points="582.5,-102.5 582.5,-151.5"/>
<text text-anchor="middle" x="626.5" y="-134.2" font-family="Times,serif" font-size="14.00">data: &#45;6.0000</text>
<polyline fill="none" stroke="black" points="582.5,-127 670.5,-127"/>
<text text-anchor="middle" x="626.5" y="-109.7" font-family="Times,serif" font-size="14.00">grad:0.0000</text>
</g>
<!-- 5757998704+ -->
<g id="node6" class="node">
<title>5757998704+</title>
<ellipse fill="none" stroke="black" cx="733.5" cy="-161" rx="27" ry="18"/>
<text text-anchor="middle" x="733.5" y="-155.95" font-family="Times,serif" font-size="14.00">+</text>
</g>
<!-- 6017969680&#45;&gt;5757998704+ -->
<g id="edge10" class="edge">
<title>6017969680&#45;&gt;5757998704+</title>
<path fill="none" stroke="black" d="M670.61,-146.28C679.67,-148.44 688.53,-150.54 696.57,-152.46"/>
<polygon fill="black" stroke="black" points="695.71,-155.85 706.25,-154.76 697.33,-149.04 695.71,-155.85"/>
</g>
<!-- 6017969680+ -->
<g id="node2" class="node">
<title>6017969680+</title>
<ellipse fill="none" stroke="black" cx="443.5" cy="-127" rx="27" ry="18"/>
<text text-anchor="middle" x="443.5" y="-121.95" font-family="Times,serif" font-size="14.00">+</text>
</g>
<!-- 6017969680+&#45;&gt;6017969680 -->
<g id="edge1" class="edge">
<title>6017969680+&#45;&gt;6017969680</title>
<path fill="none" stroke="black" d="M470.73,-127C477.85,-127 485.99,-127 494.58,-127"/>
<polygon fill="black" stroke="black" points="494.57,-130.5 504.57,-127 494.57,-123.5 494.57,-130.5"/>
</g>
<!-- 5758001200 -->
<g id="node3" class="node">
<title>5758001200</title>
<polygon fill="none" stroke="black" points="1028.75,-136.5 1028.75,-185.5 1135,-185.5 1135,-136.5 1028.75,-136.5"/>
<text text-anchor="middle" x="1040.12" y="-155.95" font-family="Times,serif" font-size="14.00">o</text>
<polyline fill="none" stroke="black" points="1051.5,-136.5 1051.5,-185.5"/>
<text text-anchor="middle" x="1093.25" y="-168.2" font-family="Times,serif" font-size="14.00">data: 0.7071</text>
<polyline fill="none" stroke="black" points="1051.5,-161 1135,-161"/>
<text text-anchor="middle" x="1093.25" y="-143.7" font-family="Times,serif" font-size="14.00">grad:0.0000</text>
</g>
<!-- 5758001200tanh -->
<g id="node4" class="node">
<title>5758001200tanh</title>
<ellipse fill="none" stroke="black" cx="965.75" cy="-161" rx="27" ry="18"/>
<text text-anchor="middle" x="965.75" y="-155.95" font-family="Times,serif" font-size="14.00">tanh</text>
</g>
<!-- 5758001200tanh&#45;&gt;5758001200 -->
<g id="edge2" class="edge">
<title>5758001200tanh&#45;&gt;5758001200</title>
<path fill="none" stroke="black" d="M993.22,-161C1000.46,-161 1008.64,-161 1017.01,-161"/>
<polygon fill="black" stroke="black" points="1016.98,-164.5 1026.98,-161 1016.98,-157.5 1016.98,-164.5"/>
</g>
<!-- 5757998704 -->
<g id="node5" class="node">
<title>5757998704</title>
<polygon fill="none" stroke="black" points="796.5,-136.5 796.5,-185.5 902.75,-185.5 902.75,-136.5 796.5,-136.5"/>
<text text-anchor="middle" x="807.88" y="-155.95" font-family="Times,serif" font-size="14.00">n</text>
<polyline fill="none" stroke="black" points="819.25,-136.5 819.25,-185.5"/>
<text text-anchor="middle" x="861" y="-168.2" font-family="Times,serif" font-size="14.00">data: 0.8814</text>
<polyline fill="none" stroke="black" points="819.25,-161 902.75,-161"/>
<text text-anchor="middle" x="861" y="-143.7" font-family="Times,serif" font-size="14.00">grad:0.0000</text>
</g>
<!-- 5757998704&#45;&gt;5758001200tanh -->
<g id="edge11" class="edge">
<title>5757998704&#45;&gt;5758001200tanh</title>
<path fill="none" stroke="black" d="M903.01,-161C911.18,-161 919.48,-161 927.24,-161"/>
<polygon fill="black" stroke="black" points="926.98,-164.5 936.98,-161 926.98,-157.5 926.98,-164.5"/>
</g>
<!-- 5757998704+&#45;&gt;5757998704 -->
<g id="edge3" class="edge">
<title>5757998704+&#45;&gt;5757998704</title>
<path fill="none" stroke="black" d="M760.97,-161C768.21,-161 776.39,-161 784.76,-161"/>
<polygon fill="black" stroke="black" points="784.73,-164.5 794.73,-161 784.73,-157.5 784.73,-164.5"/>
</g>
<!-- 6017971408 -->
<g id="node7" class="node">
<title>6017971408</title>
<polygon fill="none" stroke="black" points="248.75,-136.5 248.75,-185.5 378.25,-185.5 378.25,-136.5 248.75,-136.5"/>
<text text-anchor="middle" x="271.75" y="-155.95" font-family="Times,serif" font-size="14.00">x2w2</text>
<polyline fill="none" stroke="black" points="294.75,-136.5 294.75,-185.5"/>
<text text-anchor="middle" x="336.5" y="-168.2" font-family="Times,serif" font-size="14.00">data: 0.0000</text>
<polyline fill="none" stroke="black" points="294.75,-161 378.25,-161"/>
<text text-anchor="middle" x="336.5" y="-143.7" font-family="Times,serif" font-size="14.00">grad:0.0000</text>
</g>
<!-- 6017971408&#45;&gt;6017969680+ -->
<g id="edge12" class="edge">
<title>6017971408&#45;&gt;6017969680+</title>
<path fill="none" stroke="black" d="M378.5,-144C388.23,-141.41 397.97,-138.83 406.8,-136.48"/>
<polygon fill="black" stroke="black" points="407.59,-139.89 416.36,-133.94 405.79,-133.13 407.59,-139.89"/>
</g>
<!-- 6017971408* -->
<g id="node8" class="node">
<title>6017971408*</title>
<ellipse fill="none" stroke="black" cx="183.5" cy="-161" rx="27" ry="18"/>
<text text-anchor="middle" x="183.5" y="-155.95" font-family="Times,serif" font-size="14.00">*</text>
</g>
<!-- 6017971408*&#45;&gt;6017971408 -->
<g id="edge4" class="edge">
<title>6017971408*&#45;&gt;6017971408</title>
<path fill="none" stroke="black" d="M210.71,-161C218.51,-161 227.48,-161 236.79,-161"/>
<polygon fill="black" stroke="black" points="236.74,-164.5 246.74,-161 236.74,-157.5 236.74,-164.5"/>
</g>
<!-- 6017971936 -->
<g id="node9" class="node">
<title>6017971936</title>
<polygon fill="none" stroke="black" points="3.75,-204.5 3.75,-253.5 116.75,-253.5 116.75,-204.5 3.75,-204.5"/>
<text text-anchor="middle" x="18.5" y="-223.95" font-family="Times,serif" font-size="14.00">x2</text>
<polyline fill="none" stroke="black" points="33.25,-204.5 33.25,-253.5"/>
<text text-anchor="middle" x="75" y="-236.2" font-family="Times,serif" font-size="14.00">data: 0.0000</text>
<polyline fill="none" stroke="black" points="33.25,-229 116.75,-229"/>
<text text-anchor="middle" x="75" y="-211.7" font-family="Times,serif" font-size="14.00">grad:0.0000</text>
</g>
<!-- 6017971936&#45;&gt;6017971408* -->
<g id="edge9" class="edge">
<title>6017971936&#45;&gt;6017971408*</title>
<path fill="none" stroke="black" d="M105.71,-204.07C121.27,-195.34 138.35,-185.76 152.45,-177.85"/>
<polygon fill="black" stroke="black" points="153.79,-181.11 160.8,-173.17 150.37,-175.01 153.79,-181.11"/>
</g>
<!-- 6017966800 -->
<g id="node10" class="node">
<title>6017966800</title>
<polygon fill="none" stroke="black" points="246.5,-68.5 246.5,-117.5 380.5,-117.5 380.5,-68.5 246.5,-68.5"/>
<text text-anchor="middle" x="269.5" y="-87.95" font-family="Times,serif" font-size="14.00">x1w1</text>
<polyline fill="none" stroke="black" points="292.5,-68.5 292.5,-117.5"/>
<text text-anchor="middle" x="336.5" y="-100.2" font-family="Times,serif" font-size="14.00">data: &#45;6.0000</text>
<polyline fill="none" stroke="black" points="292.5,-93 380.5,-93"/>
<text text-anchor="middle" x="336.5" y="-75.7" font-family="Times,serif" font-size="14.00">grad:0.0000</text>
</g>
<!-- 6017966800&#45;&gt;6017969680+ -->
<g id="edge6" class="edge">
<title>6017966800&#45;&gt;6017969680+</title>
<path fill="none" stroke="black" d="M380.75,-110.6C389.79,-113 398.77,-115.38 406.96,-117.56"/>
<polygon fill="black" stroke="black" points="405.93,-120.91 416.49,-120.09 407.73,-114.14 405.93,-120.91"/>
</g>
<!-- 6017966800* -->
<g id="node11" class="node">
<title>6017966800*</title>
<ellipse fill="none" stroke="black" cx="183.5" cy="-93" rx="27" ry="18"/>
<text text-anchor="middle" x="183.5" y="-87.95" font-family="Times,serif" font-size="14.00">*</text>
</g>
<!-- 6017966800*&#45;&gt;6017966800 -->
<g id="edge5" class="edge">
<title>6017966800*&#45;&gt;6017966800</title>
<path fill="none" stroke="black" d="M210.71,-93C217.93,-93 226.15,-93 234.72,-93"/>
<polygon fill="black" stroke="black" points="234.62,-96.5 244.62,-93 234.62,-89.5 234.62,-96.5"/>
</g>
<!-- 6017968384 -->
<g id="node12" class="node">
<title>6017968384</title>
<polygon fill="none" stroke="black" points="3.75,-68.5 3.75,-117.5 116.75,-117.5 116.75,-68.5 3.75,-68.5"/>
<text text-anchor="middle" x="18.5" y="-87.95" font-family="Times,serif" font-size="14.00">x1</text>
<polyline fill="none" stroke="black" points="33.25,-68.5 33.25,-117.5"/>
<text text-anchor="middle" x="75" y="-100.2" font-family="Times,serif" font-size="14.00">data: 2.0000</text>
<polyline fill="none" stroke="black" points="33.25,-93 116.75,-93"/>
<text text-anchor="middle" x="75" y="-75.7" font-family="Times,serif" font-size="14.00">grad:0.0000</text>
</g>
<!-- 6017968384&#45;&gt;6017966800* -->
<g id="edge7" class="edge">
<title>6017968384&#45;&gt;6017966800*</title>
<path fill="none" stroke="black" d="M116.91,-93C126.32,-93 135.9,-93 144.72,-93"/>
<polygon fill="black" stroke="black" points="144.68,-96.5 154.68,-93 144.68,-89.5 144.68,-96.5"/>
</g>
<!-- 6017969968 -->
<g id="node13" class="node">
<title>6017969968</title>
<polygon fill="none" stroke="black" points="2.25,-136.5 2.25,-185.5 118.25,-185.5 118.25,-136.5 2.25,-136.5"/>
<text text-anchor="middle" x="18.5" y="-155.95" font-family="Times,serif" font-size="14.00">w2</text>
<polyline fill="none" stroke="black" points="34.75,-136.5 34.75,-185.5"/>
<text text-anchor="middle" x="76.5" y="-168.2" font-family="Times,serif" font-size="14.00">data: 1.0000</text>
<polyline fill="none" stroke="black" points="34.75,-161 118.25,-161"/>
<text text-anchor="middle" x="76.5" y="-143.7" font-family="Times,serif" font-size="14.00">grad:0.0000</text>
</g>
<!-- 6017969968&#45;&gt;6017971408* -->
<g id="edge14" class="edge">
<title>6017969968&#45;&gt;6017971408*</title>
<path fill="none" stroke="black" d="M118.68,-161C127.48,-161 136.37,-161 144.61,-161"/>
<polygon fill="black" stroke="black" points="144.61,-164.5 154.61,-161 144.61,-157.5 144.61,-164.5"/>
</g>
<!-- 6017966416 -->
<g id="node14" class="node">
<title>6017966416</title>
<polygon fill="none" stroke="black" points="0,-0.5 0,-49.5 120.5,-49.5 120.5,-0.5 0,-0.5"/>
<text text-anchor="middle" x="16.25" y="-19.95" font-family="Times,serif" font-size="14.00">w1</text>
<polyline fill="none" stroke="black" points="32.5,-0.5 32.5,-49.5"/>
<text text-anchor="middle" x="76.5" y="-32.2" font-family="Times,serif" font-size="14.00">data: &#45;3.0000</text>
<polyline fill="none" stroke="black" points="32.5,-25 120.5,-25"/>
<text text-anchor="middle" x="76.5" y="-7.7" font-family="Times,serif" font-size="14.00">grad:0.0000</text>
</g>
<!-- 6017966416&#45;&gt;6017966800* -->
<g id="edge13" class="edge">
<title>6017966416&#45;&gt;6017966800*</title>
<path fill="none" stroke="black" d="M105.71,-49.93C121.27,-58.66 138.35,-68.24 152.45,-76.15"/>
<polygon fill="black" stroke="black" points="150.37,-78.99 160.8,-80.83 153.79,-72.89 150.37,-78.99"/>
</g>
<!-- 6017967472 -->
<g id="node15" class="node">
<title>6017967472</title>
<polygon fill="none" stroke="black" points="535.38,-170.5 535.38,-219.5 641.62,-219.5 641.62,-170.5 535.38,-170.5"/>
<text text-anchor="middle" x="546.75" y="-189.95" font-family="Times,serif" font-size="14.00">b</text>
<polyline fill="none" stroke="black" points="558.12,-170.5 558.12,-219.5"/>
<text text-anchor="middle" x="599.88" y="-202.2" font-family="Times,serif" font-size="14.00">data: 6.8814</text>
<polyline fill="none" stroke="black" points="558.12,-195 641.62,-195"/>
<text text-anchor="middle" x="599.88" y="-177.7" font-family="Times,serif" font-size="14.00">grad:0.0000</text>
</g>
<!-- 6017967472&#45;&gt;5757998704+ -->
<g id="edge8" class="edge">
<title>6017967472&#45;&gt;5757998704+</title>
<path fill="none" stroke="black" d="M641.94,-182.53C660.2,-178.19 680.25,-173.42 696.84,-169.48"/>
<polygon fill="black" stroke="black" points="697.31,-172.96 706.23,-167.25 695.69,-166.15 697.31,-172.96"/>
</g>
</g>
</svg>
