<?xml version="1.0" encoding="UTF-8" standalone="no"?>
<!DOCTYPE svg PUBLIC "-//W3C//DTD SVG 1.1//EN"
 "http://www.w3.org/Graphics/SVG/1.1/DTD/svg11.dtd">
<!-- Generated by graphviz version 12.2.1 (20241206.2353)
 -->
<!-- Pages: 1 -->
<svg width="2077pt" height="330pt"
 viewBox="0.00 0.00 2076.62 330.00" xmlns="http://www.w3.org/2000/svg" xmlns:xlink="http://www.w3.org/1999/xlink">
<g id="graph0" class="graph" transform="scale(1 1) rotate(0) translate(4 326)">
<polygon fill="white" stroke="none" points="-4,4 -4,-326 2072.62,-326 2072.62,4 -4,4"/>
<!-- 5757810784 -->
<g id="node1" class="node">
<title>5757810784</title>
<polygon fill="none" stroke="black" points="1962.37,-106.5 1962.37,-155.5 2068.62,-155.5 2068.62,-106.5 1962.37,-106.5"/>
<text text-anchor="middle" x="1973.74" y="-125.95" font-family="Times,serif" font-size="14.00">o</text>
<polyline fill="none" stroke="black" points="1985.12,-106.5 1985.12,-155.5"/>
<text text-anchor="middle" x="2026.87" y="-138.2" font-family="Times,serif" font-size="14.00">data: 0.7071</text>
<polyline fill="none" stroke="black" points="1985.12,-131 2068.62,-131"/>
<text text-anchor="middle" x="2026.87" y="-113.7" font-family="Times,serif" font-size="14.00">grad:1.0000</text>
</g>
<!-- 5757810784* -->
<g id="node2" class="node">
<title>5757810784*</title>
<ellipse fill="none" stroke="black" cx="1899.37" cy="-131" rx="27" ry="18"/>
<text text-anchor="middle" x="1899.37" y="-125.95" font-family="Times,serif" font-size="14.00">*</text>
</g>
<!-- 5757810784*&#45;&gt;5757810784 -->
<g id="edge1" class="edge">
<title>5757810784*&#45;&gt;5757810784</title>
<path fill="none" stroke="black" d="M1926.84,-131C1934.08,-131 1942.26,-131 1950.63,-131"/>
<polygon fill="black" stroke="black" points="1950.59,-134.5 1960.59,-131 1950.59,-127.5 1950.59,-134.5"/>
</g>
<!-- 5757810928 -->
<g id="node3" class="node">
<title>5757810928</title>
<polygon fill="none" stroke="black" points="506.5,-170.5 506.5,-219.5 670.5,-219.5 670.5,-170.5 506.5,-170.5"/>
<text text-anchor="middle" x="544.5" y="-189.95" font-family="Times,serif" font-size="14.00">x1w1x2w2</text>
<polyline fill="none" stroke="black" points="582.5,-170.5 582.5,-219.5"/>
<text text-anchor="middle" x="626.5" y="-202.2" font-family="Times,serif" font-size="14.00">data: &#45;6.0000</text>
<polyline fill="none" stroke="black" points="582.5,-195 670.5,-195"/>
<text text-anchor="middle" x="626.5" y="-177.7" font-family="Times,serif" font-size="14.00">grad:0.2500</text>
</g>
<!-- 5757802096+ -->
<g id="node23" class="node">
<title>5757802096+</title>
<ellipse fill="none" stroke="black" cx="733.5" cy="-161" rx="27" ry="18"/>
<text text-anchor="middle" x="733.5" y="-155.95" font-family="Times,serif" font-size="14.00">+</text>
</g>
<!-- 5757810928&#45;&gt;5757802096+ -->
<g id="edge33" class="edge">
<title>5757810928&#45;&gt;5757802096+</title>
<path fill="none" stroke="black" d="M670.61,-175.72C679.67,-173.56 688.53,-171.46 696.57,-169.54"/>
<polygon fill="black" stroke="black" points="697.33,-172.96 706.25,-167.24 695.71,-166.15 697.33,-172.96"/>
</g>
<!-- 5757810928+ -->
<g id="node4" class="node">
<title>5757810928+</title>
<ellipse fill="none" stroke="black" cx="443.5" cy="-195" rx="27" ry="18"/>
<text text-anchor="middle" x="443.5" y="-189.95" font-family="Times,serif" font-size="14.00">+</text>
</g>
<!-- 5757810928+&#45;&gt;5757810928 -->
<g id="edge2" class="edge">
<title>5757810928+&#45;&gt;5757810928</title>
<path fill="none" stroke="black" d="M470.73,-195C477.85,-195 485.99,-195 494.58,-195"/>
<polygon fill="black" stroke="black" points="494.57,-198.5 504.57,-195 494.57,-191.5 494.57,-198.5"/>
</g>
<!-- 5757997504 -->
<g id="node5" class="node">
<title>5757997504</title>
<polygon fill="none" stroke="black" points="0,-272.5 0,-321.5 120.5,-321.5 120.5,-272.5 0,-272.5"/>
<text text-anchor="middle" x="16.25" y="-291.95" font-family="Times,serif" font-size="14.00">w1</text>
<polyline fill="none" stroke="black" points="32.5,-272.5 32.5,-321.5"/>
<text text-anchor="middle" x="76.5" y="-304.2" font-family="Times,serif" font-size="14.00">data: &#45;3.0000</text>
<polyline fill="none" stroke="black" points="32.5,-297 120.5,-297"/>
<text text-anchor="middle" x="76.5" y="-279.7" font-family="Times,serif" font-size="14.00">grad:0.5000</text>
</g>
<!-- 5757803680* -->
<g id="node15" class="node">
<title>5757803680*</title>
<ellipse fill="none" stroke="black" cx="183.5" cy="-229" rx="27" ry="18"/>
<text text-anchor="middle" x="183.5" y="-223.95" font-family="Times,serif" font-size="14.00">*</text>
</g>
<!-- 5757997504&#45;&gt;5757803680* -->
<g id="edge23" class="edge">
<title>5757997504&#45;&gt;5757803680*</title>
<path fill="none" stroke="black" d="M105.71,-272.07C121.27,-263.34 138.35,-253.76 152.45,-245.85"/>
<polygon fill="black" stroke="black" points="153.79,-249.11 160.8,-241.17 150.37,-243.01 153.79,-249.11"/>
</g>
<!-- 5757805120 -->
<g id="node6" class="node">
<title>5757805120</title>
<polygon fill="none" stroke="black" points="1265.12,-68.5 1265.12,-117.5 1370.62,-117.5 1370.62,-68.5 1265.12,-68.5"/>
<text text-anchor="middle" x="1275" y="-87.95" font-family="Times,serif" font-size="14.00"> </text>
<polyline fill="none" stroke="black" points="1284.88,-68.5 1284.88,-117.5"/>
<text text-anchor="middle" x="1327.75" y="-100.2" font-family="Times,serif" font-size="14.00">data: 0.4142</text>
<polyline fill="none" stroke="black" points="1284.88,-93 1370.62,-93"/>
<text text-anchor="middle" x="1327.75" y="-75.7" font-family="Times,serif" font-size="14.00">grad:&#45;0.6036</text>
</g>
<!-- 5757799840+ -->
<g id="node20" class="node">
<title>5757799840+</title>
<ellipse fill="none" stroke="black" cx="1434.75" cy="-108" rx="27" ry="18"/>
<text text-anchor="middle" x="1434.75" y="-102.95" font-family="Times,serif" font-size="14.00">+</text>
</g>
<!-- 5757805120&#45;&gt;5757799840+ -->
<g id="edge18" class="edge">
<title>5757805120&#45;&gt;5757799840+</title>
<path fill="none" stroke="black" d="M1370.93,-99.8C1379.55,-100.92 1388.33,-102.07 1396.48,-103.13"/>
<polygon fill="black" stroke="black" points="1396.03,-106.6 1406.4,-104.43 1396.93,-99.66 1396.03,-106.6"/>
</g>
<!-- 5757802192* -->
<g id="node27" class="node">
<title>5757802192*</title>
<ellipse fill="none" stroke="black" cx="1434.75" cy="-40" rx="27" ry="18"/>
<text text-anchor="middle" x="1434.75" y="-34.95" font-family="Times,serif" font-size="14.00">*</text>
</g>
<!-- 5757805120&#45;&gt;5757802192* -->
<g id="edge15" class="edge">
<title>5757805120&#45;&gt;5757802192*</title>
<path fill="none" stroke="black" d="M1370.93,-68.98C1381.46,-64.13 1392.23,-59.16 1401.81,-54.74"/>
<polygon fill="black" stroke="black" points="1403.05,-58.02 1410.67,-50.65 1400.12,-51.66 1403.05,-58.02"/>
</g>
<!-- 5757805120exp -->
<g id="node7" class="node">
<title>5757805120exp</title>
<ellipse fill="none" stroke="black" cx="1201" cy="-93" rx="27" ry="18"/>
<text text-anchor="middle" x="1201" y="-87.95" font-family="Times,serif" font-size="14.00">exp</text>
</g>
<!-- 5757805120exp&#45;&gt;5757805120 -->
<g id="edge3" class="edge">
<title>5757805120exp&#45;&gt;5757805120</title>
<path fill="none" stroke="black" d="M1228.35,-93C1235.99,-93 1244.68,-93 1253.56,-93"/>
<polygon fill="black" stroke="black" points="1253.33,-96.5 1263.33,-93 1253.33,-89.5 1253.33,-96.5"/>
</g>
<!-- 5757997648 -->
<g id="node8" class="node">
<title>5757997648</title>
<polygon fill="none" stroke="black" points="2.25,-136.5 2.25,-185.5 118.25,-185.5 118.25,-136.5 2.25,-136.5"/>
<text text-anchor="middle" x="18.5" y="-155.95" font-family="Times,serif" font-size="14.00">w2</text>
<polyline fill="none" stroke="black" points="34.75,-136.5 34.75,-185.5"/>
<text text-anchor="middle" x="76.5" y="-168.2" font-family="Times,serif" font-size="14.00">data: 1.0000</text>
<polyline fill="none" stroke="black" points="34.75,-161 118.25,-161"/>
<text text-anchor="middle" x="76.5" y="-143.7" font-family="Times,serif" font-size="14.00">grad:0.0000</text>
</g>
<!-- 5757806272* -->
<g id="node25" class="node">
<title>5757806272*</title>
<ellipse fill="none" stroke="black" cx="183.5" cy="-161" rx="27" ry="18"/>
<text text-anchor="middle" x="183.5" y="-155.95" font-family="Times,serif" font-size="14.00">*</text>
</g>
<!-- 5757997648&#45;&gt;5757806272* -->
<g id="edge16" class="edge">
<title>5757997648&#45;&gt;5757806272*</title>
<path fill="none" stroke="black" d="M118.68,-161C127.48,-161 136.37,-161 144.61,-161"/>
<polygon fill="black" stroke="black" points="144.61,-164.5 154.61,-161 144.61,-157.5 144.61,-164.5"/>
</g>
<!-- 5758001824 -->
<g id="node9" class="node">
<title>5758001824</title>
<polygon fill="none" stroke="black" points="535.38,-102.5 535.38,-151.5 641.62,-151.5 641.62,-102.5 535.38,-102.5"/>
<text text-anchor="middle" x="546.75" y="-121.95" font-family="Times,serif" font-size="14.00">b</text>
<polyline fill="none" stroke="black" points="558.12,-102.5 558.12,-151.5"/>
<text text-anchor="middle" x="599.88" y="-134.2" font-family="Times,serif" font-size="14.00">data: 6.8814</text>
<polyline fill="none" stroke="black" points="558.12,-127 641.62,-127"/>
<text text-anchor="middle" x="599.88" y="-109.7" font-family="Times,serif" font-size="14.00">grad:0.2500</text>
</g>
<!-- 5758001824&#45;&gt;5757802096+ -->
<g id="edge19" class="edge">
<title>5758001824&#45;&gt;5757802096+</title>
<path fill="none" stroke="black" d="M641.94,-139.47C660.2,-143.81 680.25,-148.58 696.84,-152.52"/>
<polygon fill="black" stroke="black" points="695.69,-155.85 706.23,-154.75 697.31,-149.04 695.69,-155.85"/>
</g>
<!-- 5758001872 -->
<g id="node10" class="node">
<title>5758001872</title>
<polygon fill="none" stroke="black" points="2.62,-204.5 2.62,-253.5 117.88,-253.5 117.88,-204.5 2.62,-204.5"/>
<text text-anchor="middle" x="17.38" y="-223.95" font-family="Times,serif" font-size="14.00">x1</text>
<polyline fill="none" stroke="black" points="32.12,-204.5 32.12,-253.5"/>
<text text-anchor="middle" x="75" y="-236.2" font-family="Times,serif" font-size="14.00">data: 2.0000</text>
<polyline fill="none" stroke="black" points="32.12,-229 117.88,-229"/>
<text text-anchor="middle" x="75" y="-211.7" font-family="Times,serif" font-size="14.00">grad:&#45;0.7500</text>
</g>
<!-- 5758001872&#45;&gt;5757803680* -->
<g id="edge22" class="edge">
<title>5758001872&#45;&gt;5757803680*</title>
<path fill="none" stroke="black" d="M118.32,-229C127.34,-229 136.46,-229 144.89,-229"/>
<polygon fill="black" stroke="black" points="144.74,-232.5 154.74,-229 144.74,-225.5 144.74,-232.5"/>
</g>
<!-- 5757807328 -->
<g id="node11" class="node">
<title>5757807328</title>
<polygon fill="none" stroke="black" points="1733.12,-140.5 1733.12,-189.5 1836.37,-189.5 1836.37,-140.5 1733.12,-140.5"/>
<text text-anchor="middle" x="1742.99" y="-159.95" font-family="Times,serif" font-size="14.00"> </text>
<polyline fill="none" stroke="black" points="1752.87,-140.5 1752.87,-189.5"/>
<text text-anchor="middle" x="1794.62" y="-172.2" font-family="Times,serif" font-size="14.00">data: 2.0000</text>
<polyline fill="none" stroke="black" points="1752.87,-165 1836.37,-165"/>
<text text-anchor="middle" x="1794.62" y="-147.7" font-family="Times,serif" font-size="14.00">grad:0.3536</text>
</g>
<!-- 5757807328&#45;&gt;5757810784* -->
<g id="edge20" class="edge">
<title>5757807328&#45;&gt;5757810784*</title>
<path fill="none" stroke="black" d="M1836.78,-149.59C1845.74,-146.89 1854.89,-144.13 1863.29,-141.59"/>
<polygon fill="black" stroke="black" points="1864.19,-144.97 1872.76,-138.73 1862.17,-138.27 1864.19,-144.97"/>
</g>
<!-- 5757807328+ -->
<g id="node12" class="node">
<title>5757807328+</title>
<ellipse fill="none" stroke="black" cx="1669.31" cy="-161" rx="27" ry="18"/>
<text text-anchor="middle" x="1669.31" y="-155.95" font-family="Times,serif" font-size="14.00">+</text>
</g>
<!-- 5757807328+&#45;&gt;5757807328 -->
<g id="edge4" class="edge">
<title>5757807328+&#45;&gt;5757807328</title>
<path fill="none" stroke="black" d="M1696.62,-161.93C1704.26,-162.2 1712.94,-162.5 1721.8,-162.82"/>
<polygon fill="black" stroke="black" points="1721.41,-166.3 1731.53,-163.16 1721.66,-159.31 1721.41,-166.3"/>
</g>
<!-- 5757993760 -->
<g id="node13" class="node">
<title>5757993760</title>
<polygon fill="none" stroke="black" points="3.75,-68.5 3.75,-117.5 116.75,-117.5 116.75,-68.5 3.75,-68.5"/>
<text text-anchor="middle" x="18.5" y="-87.95" font-family="Times,serif" font-size="14.00">x2</text>
<polyline fill="none" stroke="black" points="33.25,-68.5 33.25,-117.5"/>
<text text-anchor="middle" x="75" y="-100.2" font-family="Times,serif" font-size="14.00">data: 0.0000</text>
<polyline fill="none" stroke="black" points="33.25,-93 116.75,-93"/>
<text text-anchor="middle" x="75" y="-75.7" font-family="Times,serif" font-size="14.00">grad:0.2500</text>
</g>
<!-- 5757993760&#45;&gt;5757806272* -->
<g id="edge27" class="edge">
<title>5757993760&#45;&gt;5757806272*</title>
<path fill="none" stroke="black" d="M105.71,-117.93C121.27,-126.66 138.35,-136.24 152.45,-144.15"/>
<polygon fill="black" stroke="black" points="150.37,-146.99 160.8,-148.83 153.79,-140.89 150.37,-146.99"/>
</g>
<!-- 5757803680 -->
<g id="node14" class="node">
<title>5757803680</title>
<polygon fill="none" stroke="black" points="246.5,-204.5 246.5,-253.5 380.5,-253.5 380.5,-204.5 246.5,-204.5"/>
<text text-anchor="middle" x="269.5" y="-223.95" font-family="Times,serif" font-size="14.00">x1w1</text>
<polyline fill="none" stroke="black" points="292.5,-204.5 292.5,-253.5"/>
<text text-anchor="middle" x="336.5" y="-236.2" font-family="Times,serif" font-size="14.00">data: &#45;6.0000</text>
<polyline fill="none" stroke="black" points="292.5,-229 380.5,-229"/>
<text text-anchor="middle" x="336.5" y="-211.7" font-family="Times,serif" font-size="14.00">grad:0.2500</text>
</g>
<!-- 5757803680&#45;&gt;5757810928+ -->
<g id="edge31" class="edge">
<title>5757803680&#45;&gt;5757810928+</title>
<path fill="none" stroke="black" d="M380.75,-211.4C389.79,-209 398.77,-206.62 406.96,-204.44"/>
<polygon fill="black" stroke="black" points="407.73,-207.86 416.49,-201.91 405.93,-201.09 407.73,-207.86"/>
</g>
<!-- 5757803680*&#45;&gt;5757803680 -->
<g id="edge5" class="edge">
<title>5757803680*&#45;&gt;5757803680</title>
<path fill="none" stroke="black" d="M210.71,-229C217.93,-229 226.15,-229 234.72,-229"/>
<polygon fill="black" stroke="black" points="234.62,-232.5 244.62,-229 234.62,-225.5 234.62,-232.5"/>
</g>
<!-- 5757811984 -->
<g id="node16" class="node">
<title>5757811984</title>
<polygon fill="none" stroke="black" points="796.5,-68.5 796.5,-117.5 904.25,-117.5 904.25,-68.5 796.5,-68.5"/>
<text text-anchor="middle" x="806.38" y="-87.95" font-family="Times,serif" font-size="14.00"> </text>
<polyline fill="none" stroke="black" points="816.25,-68.5 816.25,-117.5"/>
<text text-anchor="middle" x="860.25" y="-100.2" font-family="Times,serif" font-size="14.00">data: &#45;1.0000</text>
<polyline fill="none" stroke="black" points="816.25,-93 904.25,-93"/>
<text text-anchor="middle" x="860.25" y="-75.7" font-family="Times,serif" font-size="14.00">grad:&#45;0.2203</text>
</g>
<!-- 5757802240* -->
<g id="node29" class="node">
<title>5757802240*</title>
<ellipse fill="none" stroke="black" cx="967.25" cy="-93" rx="27" ry="18"/>
<text text-anchor="middle" x="967.25" y="-87.95" font-family="Times,serif" font-size="14.00">*</text>
</g>
<!-- 5757811984&#45;&gt;5757802240* -->
<g id="edge17" class="edge">
<title>5757811984&#45;&gt;5757802240*</title>
<path fill="none" stroke="black" d="M904.44,-93C912.64,-93 920.96,-93 928.72,-93"/>
<polygon fill="black" stroke="black" points="928.48,-96.5 938.48,-93 928.48,-89.5 928.48,-96.5"/>
</g>
<!-- 5757803920 -->
<g id="node17" class="node">
<title>5757803920</title>
<polygon fill="none" stroke="black" points="1733.12,-72.5 1733.12,-121.5 1836.37,-121.5 1836.37,-72.5 1733.12,-72.5"/>
<text text-anchor="middle" x="1742.99" y="-91.95" font-family="Times,serif" font-size="14.00"> </text>
<polyline fill="none" stroke="black" points="1752.87,-72.5 1752.87,-121.5"/>
<text text-anchor="middle" x="1794.62" y="-104.2" font-family="Times,serif" font-size="14.00">data: 0.3536</text>
<polyline fill="none" stroke="black" points="1752.87,-97 1836.37,-97"/>
<text text-anchor="middle" x="1794.62" y="-79.7" font-family="Times,serif" font-size="14.00">grad:2.0000</text>
</g>
<!-- 5757803920&#45;&gt;5757810784* -->
<g id="edge14" class="edge">
<title>5757803920&#45;&gt;5757810784*</title>
<path fill="none" stroke="black" d="M1836.78,-112.41C1845.74,-115.11 1854.89,-117.87 1863.29,-120.41"/>
<polygon fill="black" stroke="black" points="1862.17,-123.73 1872.76,-123.27 1864.19,-117.03 1862.17,-123.73"/>
</g>
<!-- 5757803920**&#45;1 -->
<g id="node18" class="node">
<title>5757803920**&#45;1</title>
<ellipse fill="none" stroke="black" cx="1669.31" cy="-100" rx="27.81" ry="18"/>
<text text-anchor="middle" x="1669.31" y="-94.95" font-family="Times,serif" font-size="14.00">**&#45;1</text>
</g>
<!-- 5757803920**&#45;1&#45;&gt;5757803920 -->
<g id="edge6" class="edge">
<title>5757803920**&#45;1&#45;&gt;5757803920</title>
<path fill="none" stroke="black" d="M1697.48,-99.28C1704.78,-99.09 1712.98,-98.87 1721.36,-98.65"/>
<polygon fill="black" stroke="black" points="1721.39,-102.15 1731.29,-98.39 1721.2,-95.15 1721.39,-102.15"/>
</g>
<!-- 5757799840 -->
<g id="node19" class="node">
<title>5757799840</title>
<polygon fill="none" stroke="black" points="1498.88,-83.5 1498.88,-132.5 1604.38,-132.5 1604.38,-83.5 1498.88,-83.5"/>
<text text-anchor="middle" x="1508.75" y="-102.95" font-family="Times,serif" font-size="14.00"> </text>
<polyline fill="none" stroke="black" points="1518.62,-83.5 1518.62,-132.5"/>
<text text-anchor="middle" x="1561.5" y="-115.2" font-family="Times,serif" font-size="14.00">data: 2.8284</text>
<polyline fill="none" stroke="black" points="1518.62,-108 1604.38,-108"/>
<text text-anchor="middle" x="1561.5" y="-90.7" font-family="Times,serif" font-size="14.00">grad:&#45;0.2500</text>
</g>
<!-- 5757799840&#45;&gt;5757803920**&#45;1 -->
<g id="edge26" class="edge">
<title>5757799840&#45;&gt;5757803920**&#45;1</title>
<path fill="none" stroke="black" d="M1604.71,-104.4C1613.18,-103.81 1621.8,-103.22 1629.86,-102.66"/>
<polygon fill="black" stroke="black" points="1629.93,-106.16 1639.67,-101.98 1629.45,-99.18 1629.93,-106.16"/>
</g>
<!-- 5757799840+&#45;&gt;5757799840 -->
<g id="edge7" class="edge">
<title>5757799840+&#45;&gt;5757799840</title>
<path fill="none" stroke="black" d="M1462.1,-108C1469.74,-108 1478.43,-108 1487.31,-108"/>
<polygon fill="black" stroke="black" points="1487.08,-111.5 1497.08,-108 1487.08,-104.5 1487.08,-111.5"/>
</g>
<!-- 5757804112 -->
<g id="node21" class="node">
<title>5757804112</title>
<polygon fill="none" stroke="black" points="1264,-0.5 1264,-49.5 1371.75,-49.5 1371.75,-0.5 1264,-0.5"/>
<text text-anchor="middle" x="1273.88" y="-19.95" font-family="Times,serif" font-size="14.00"> </text>
<polyline fill="none" stroke="black" points="1283.75,-0.5 1283.75,-49.5"/>
<text text-anchor="middle" x="1327.75" y="-32.2" font-family="Times,serif" font-size="14.00">data: &#45;1.0000</text>
<polyline fill="none" stroke="black" points="1283.75,-25 1371.75,-25"/>
<text text-anchor="middle" x="1327.75" y="-7.7" font-family="Times,serif" font-size="14.00">grad:0.1464</text>
</g>
<!-- 5757804112&#45;&gt;5757802192* -->
<g id="edge25" class="edge">
<title>5757804112&#45;&gt;5757802192*</title>
<path fill="none" stroke="black" d="M1371.94,-31.93C1380.22,-33.01 1388.62,-34.11 1396.44,-35.13"/>
<polygon fill="black" stroke="black" points="1395.92,-38.59 1406.29,-36.41 1396.83,-31.65 1395.92,-38.59"/>
</g>
<!-- 5757802096 -->
<g id="node22" class="node">
<title>5757802096</title>
<polygon fill="none" stroke="black" points="797.25,-136.5 797.25,-185.5 903.5,-185.5 903.5,-136.5 797.25,-136.5"/>
<text text-anchor="middle" x="808.62" y="-155.95" font-family="Times,serif" font-size="14.00">n</text>
<polyline fill="none" stroke="black" points="820,-136.5 820,-185.5"/>
<text text-anchor="middle" x="861.75" y="-168.2" font-family="Times,serif" font-size="14.00">data: 0.8814</text>
<polyline fill="none" stroke="black" points="820,-161 903.5,-161"/>
<text text-anchor="middle" x="861.75" y="-143.7" font-family="Times,serif" font-size="14.00">grad:0.2500</text>
</g>
<!-- 5757802096&#45;&gt;5757802240* -->
<g id="edge29" class="edge">
<title>5757802096&#45;&gt;5757802240*</title>
<path fill="none" stroke="black" d="M893.5,-136.07C907.75,-127.63 923.35,-118.39 936.44,-110.64"/>
<polygon fill="black" stroke="black" points="938.2,-113.67 945.03,-105.56 934.64,-107.65 938.2,-113.67"/>
</g>
<!-- 5757802384exp -->
<g id="node31" class="node">
<title>5757802384exp</title>
<ellipse fill="none" stroke="black" cx="967.25" cy="-161" rx="27" ry="18"/>
<text text-anchor="middle" x="967.25" y="-155.95" font-family="Times,serif" font-size="14.00">exp</text>
</g>
<!-- 5757802096&#45;&gt;5757802384exp -->
<g id="edge30" class="edge">
<title>5757802096&#45;&gt;5757802384exp</title>
<path fill="none" stroke="black" d="M903.77,-161C912.1,-161 920.57,-161 928.48,-161"/>
<polygon fill="black" stroke="black" points="928.44,-164.5 938.44,-161 928.44,-157.5 928.44,-164.5"/>
</g>
<!-- 5757802096+&#45;&gt;5757802096 -->
<g id="edge8" class="edge">
<title>5757802096+&#45;&gt;5757802096</title>
<path fill="none" stroke="black" d="M760.85,-161C768.32,-161 776.78,-161 785.44,-161"/>
<polygon fill="black" stroke="black" points="785.36,-164.5 795.36,-161 785.36,-157.5 785.36,-164.5"/>
</g>
<!-- 5757806272 -->
<g id="node24" class="node">
<title>5757806272</title>
<polygon fill="none" stroke="black" points="248.75,-136.5 248.75,-185.5 378.25,-185.5 378.25,-136.5 248.75,-136.5"/>
<text text-anchor="middle" x="271.75" y="-155.95" font-family="Times,serif" font-size="14.00">x2w2</text>
<polyline fill="none" stroke="black" points="294.75,-136.5 294.75,-185.5"/>
<text text-anchor="middle" x="336.5" y="-168.2" font-family="Times,serif" font-size="14.00">data: 0.0000</text>
<polyline fill="none" stroke="black" points="294.75,-161 378.25,-161"/>
<text text-anchor="middle" x="336.5" y="-143.7" font-family="Times,serif" font-size="14.00">grad:0.2500</text>
</g>
<!-- 5757806272&#45;&gt;5757810928+ -->
<g id="edge21" class="edge">
<title>5757806272&#45;&gt;5757810928+</title>
<path fill="none" stroke="black" d="M378.5,-178C388.23,-180.59 397.97,-183.17 406.8,-185.52"/>
<polygon fill="black" stroke="black" points="405.79,-188.87 416.36,-188.06 407.59,-182.11 405.79,-188.87"/>
</g>
<!-- 5757806272*&#45;&gt;5757806272 -->
<g id="edge9" class="edge">
<title>5757806272*&#45;&gt;5757806272</title>
<path fill="none" stroke="black" d="M210.71,-161C218.51,-161 227.48,-161 236.79,-161"/>
<polygon fill="black" stroke="black" points="236.74,-164.5 246.74,-161 236.74,-157.5 236.74,-164.5"/>
</g>
<!-- 5757802192 -->
<g id="node26" class="node">
<title>5757802192</title>
<polygon fill="none" stroke="black" points="1497.75,-15.5 1497.75,-64.5 1605.5,-64.5 1605.5,-15.5 1497.75,-15.5"/>
<text text-anchor="middle" x="1507.62" y="-34.95" font-family="Times,serif" font-size="14.00"> </text>
<polyline fill="none" stroke="black" points="1517.5,-15.5 1517.5,-64.5"/>
<text text-anchor="middle" x="1561.5" y="-47.2" font-family="Times,serif" font-size="14.00">data: &#45;0.4142</text>
<polyline fill="none" stroke="black" points="1517.5,-40 1605.5,-40"/>
<text text-anchor="middle" x="1561.5" y="-22.7" font-family="Times,serif" font-size="14.00">grad:0.3536</text>
</g>
<!-- 5757802192&#45;&gt;5757807328+ -->
<g id="edge13" class="edge">
<title>5757802192&#45;&gt;5757807328+</title>
<path fill="none" stroke="black" d="M1594.82,-64.85C1598.59,-67.73 1602.22,-70.8 1605.5,-74 1625.89,-93.88 1624.67,-104.03 1641.5,-127 1643.72,-130.03 1646.1,-133.18 1648.48,-136.27"/>
<polygon fill="black" stroke="black" points="1645.67,-138.36 1654.59,-144.07 1651.18,-134.04 1645.67,-138.36"/>
</g>
<!-- 5757802192*&#45;&gt;5757802192 -->
<g id="edge10" class="edge">
<title>5757802192*&#45;&gt;5757802192</title>
<path fill="none" stroke="black" d="M1462.1,-40C1469.47,-40 1477.82,-40 1486.37,-40"/>
<polygon fill="black" stroke="black" points="1486.15,-43.5 1496.15,-40 1486.15,-36.5 1486.15,-43.5"/>
</g>
<!-- 5757802240 -->
<g id="node28" class="node">
<title>5757802240</title>
<polygon fill="none" stroke="black" points="1030.25,-68.5 1030.25,-117.5 1138,-117.5 1138,-68.5 1030.25,-68.5"/>
<text text-anchor="middle" x="1040.12" y="-87.95" font-family="Times,serif" font-size="14.00"> </text>
<polyline fill="none" stroke="black" points="1050,-68.5 1050,-117.5"/>
<text text-anchor="middle" x="1094" y="-100.2" font-family="Times,serif" font-size="14.00">data: &#45;0.8814</text>
<polyline fill="none" stroke="black" points="1050,-93 1138,-93"/>
<text text-anchor="middle" x="1094" y="-75.7" font-family="Times,serif" font-size="14.00">grad:&#45;0.2500</text>
</g>
<!-- 5757802240&#45;&gt;5757805120exp -->
<g id="edge28" class="edge">
<title>5757802240&#45;&gt;5757805120exp</title>
<path fill="none" stroke="black" d="M1138.19,-93C1146.39,-93 1154.71,-93 1162.47,-93"/>
<polygon fill="black" stroke="black" points="1162.23,-96.5 1172.23,-93 1162.23,-89.5 1162.23,-96.5"/>
</g>
<!-- 5757802240*&#45;&gt;5757802240 -->
<g id="edge11" class="edge">
<title>5757802240*&#45;&gt;5757802240</title>
<path fill="none" stroke="black" d="M994.6,-93C1001.97,-93 1010.32,-93 1018.87,-93"/>
<polygon fill="black" stroke="black" points="1018.65,-96.5 1028.65,-93 1018.65,-89.5 1018.65,-96.5"/>
</g>
<!-- 5757802384 -->
<g id="node30" class="node">
<title>5757802384</title>
<polygon fill="none" stroke="black" points="1266.25,-136.5 1266.25,-185.5 1369.5,-185.5 1369.5,-136.5 1266.25,-136.5"/>
<text text-anchor="middle" x="1276.12" y="-155.95" font-family="Times,serif" font-size="14.00"> </text>
<polyline fill="none" stroke="black" points="1286,-136.5 1286,-185.5"/>
<text text-anchor="middle" x="1327.75" y="-168.2" font-family="Times,serif" font-size="14.00">data: 2.4142</text>
<polyline fill="none" stroke="black" points="1286,-161 1369.5,-161"/>
<text text-anchor="middle" x="1327.75" y="-143.7" font-family="Times,serif" font-size="14.00">grad:0.1036</text>
</g>
<!-- 5757802384&#45;&gt;5757807328+ -->
<g id="edge24" class="edge">
<title>5757802384&#45;&gt;5757807328+</title>
<path fill="none" stroke="black" d="M1369.69,-161C1440.64,-161 1567.76,-161 1630.77,-161"/>
<polygon fill="black" stroke="black" points="1630.61,-164.5 1640.61,-161 1630.61,-157.5 1630.61,-164.5"/>
</g>
<!-- 5757802384&#45;&gt;5757799840+ -->
<g id="edge32" class="edge">
<title>5757802384&#45;&gt;5757799840+</title>
<path fill="none" stroke="black" d="M1369.93,-137.44C1380.76,-132.45 1391.89,-127.31 1401.76,-122.76"/>
<polygon fill="black" stroke="black" points="1402.92,-126.08 1410.53,-118.71 1399.99,-119.72 1402.92,-126.08"/>
</g>
<!-- 5757802384exp&#45;&gt;5757802384 -->
<g id="edge12" class="edge">
<title>5757802384exp&#45;&gt;5757802384</title>
<path fill="none" stroke="black" d="M994.74,-161C1049.68,-161 1177.32,-161 1254.42,-161"/>
<polygon fill="black" stroke="black" points="1254.36,-164.5 1264.36,-161 1254.36,-157.5 1254.36,-164.5"/>
</g>
</g>
</svg>
