<?xml version="1.0" encoding="UTF-8" standalone="no"?>
<!DOCTYPE svg PUBLIC "-//W3C//DTD SVG 1.1//EN"
 "http://www.w3.org/Graphics/SVG/1.1/DTD/svg11.dtd">
<!-- Generated by graphviz version 12.2.1 (20241206.2353)
 -->
<!-- Pages: 1 -->
<svg width="831pt" height="194pt"
 viewBox="0.00 0.00 830.50 194.00" xmlns="http://www.w3.org/2000/svg" xmlns:xlink="http://www.w3.org/1999/xlink">
<g id="graph0" class="graph" transform="scale(1 1) rotate(0) translate(4 190)">
<polygon fill="white" stroke="none" points="-4,4 -4,-190 826.5,-190 826.5,4 -4,4"/>
<!-- 6017973760 -->
<g id="node1" class="node">
<title>6017973760</title>
<polygon fill="none" stroke="black" points="469,-136.5 469,-185.5 577.5,-185.5 577.5,-136.5 469,-136.5"/>
<text text-anchor="middle" x="479.25" y="-155.95" font-family="Times,serif" font-size="14.00">f</text>
<polyline fill="none" stroke="black" points="489.5,-136.5 489.5,-185.5"/>
<text text-anchor="middle" x="533.5" y="-168.2" font-family="Times,serif" font-size="14.00">data: &#45;2.0000</text>
<polyline fill="none" stroke="black" points="489.5,-161 577.5,-161"/>
<text text-anchor="middle" x="533.5" y="-143.7" font-family="Times,serif" font-size="14.00">grad:0.0000</text>
</g>
<!-- 6017973808* -->
<g id="node5" class="node">
<title>6017973808*</title>
<ellipse fill="none" stroke="black" cx="640.5" cy="-127" rx="27" ry="18"/>
<text text-anchor="middle" x="640.5" y="-121.95" font-family="Times,serif" font-size="14.00">*</text>
</g>
<!-- 6017973760&#45;&gt;6017973808* -->
<g id="edge6" class="edge">
<title>6017973760&#45;&gt;6017973808*</title>
<path fill="none" stroke="black" d="M577.83,-145.19C586.88,-142.52 596.07,-139.81 604.49,-137.33"/>
<polygon fill="black" stroke="black" points="605.36,-140.72 613.96,-134.54 603.38,-134.01 605.36,-140.72"/>
</g>
<!-- 6017966608 -->
<g id="node2" class="node">
<title>6017966608</title>
<polygon fill="none" stroke="black" points="470.5,-68.5 470.5,-117.5 576,-117.5 576,-68.5 470.5,-68.5"/>
<text text-anchor="middle" x="481.5" y="-87.95" font-family="Times,serif" font-size="14.00">e</text>
<polyline fill="none" stroke="black" points="492.5,-68.5 492.5,-117.5"/>
<text text-anchor="middle" x="534.25" y="-100.2" font-family="Times,serif" font-size="14.00">data: 5.0000</text>
<polyline fill="none" stroke="black" points="492.5,-93 576,-93"/>
<text text-anchor="middle" x="534.25" y="-75.7" font-family="Times,serif" font-size="14.00">grad:0.0000</text>
</g>
<!-- 6017966608&#45;&gt;6017973808* -->
<g id="edge8" class="edge">
<title>6017966608&#45;&gt;6017973808*</title>
<path fill="none" stroke="black" d="M576.48,-108.41C585.92,-111.19 595.56,-114.04 604.36,-116.63"/>
<polygon fill="black" stroke="black" points="603.34,-119.98 613.92,-119.45 605.32,-113.27 603.34,-119.98"/>
</g>
<!-- 6017966608+ -->
<g id="node3" class="node">
<title>6017966608+</title>
<ellipse fill="none" stroke="black" cx="406" cy="-93" rx="27" ry="18"/>
<text text-anchor="middle" x="406" y="-87.95" font-family="Times,serif" font-size="14.00">+</text>
</g>
<!-- 6017966608+&#45;&gt;6017966608 -->
<g id="edge1" class="edge">
<title>6017966608+&#45;&gt;6017966608</title>
<path fill="none" stroke="black" d="M433.44,-93C441.1,-93 449.82,-93 458.73,-93"/>
<polygon fill="black" stroke="black" points="458.53,-96.5 468.53,-93 458.53,-89.5 458.53,-96.5"/>
</g>
<!-- 6017973808 -->
<g id="node4" class="node">
<title>6017973808</title>
<polygon fill="none" stroke="black" points="703.5,-102.5 703.5,-151.5 822.5,-151.5 822.5,-102.5 703.5,-102.5"/>
<text text-anchor="middle" x="715.62" y="-121.95" font-family="Times,serif" font-size="14.00">L</text>
<polyline fill="none" stroke="black" points="727.75,-102.5 727.75,-151.5"/>
<text text-anchor="middle" x="775.12" y="-134.2" font-family="Times,serif" font-size="14.00">data: &#45;10.0000</text>
<polyline fill="none" stroke="black" points="727.75,-127 822.5,-127"/>
<text text-anchor="middle" x="775.12" y="-109.7" font-family="Times,serif" font-size="14.00">grad:0.0000</text>
</g>
<!-- 6017973808*&#45;&gt;6017973808 -->
<g id="edge2" class="edge">
<title>6017973808*&#45;&gt;6017973808</title>
<path fill="none" stroke="black" d="M667.94,-127C675.09,-127 683.17,-127 691.52,-127"/>
<polygon fill="black" stroke="black" points="691.5,-130.5 701.5,-127 691.5,-123.5 691.5,-130.5"/>
</g>
<!-- 6017973328 -->
<g id="node6" class="node">
<title>6017973328</title>
<polygon fill="none" stroke="black" points="0,-68.5 0,-117.5 106.25,-117.5 106.25,-68.5 0,-68.5"/>
<text text-anchor="middle" x="11.38" y="-87.95" font-family="Times,serif" font-size="14.00">b</text>
<polyline fill="none" stroke="black" points="22.75,-68.5 22.75,-117.5"/>
<text text-anchor="middle" x="64.5" y="-100.2" font-family="Times,serif" font-size="14.00">data: 3.0000</text>
<polyline fill="none" stroke="black" points="22.75,-93 106.25,-93"/>
<text text-anchor="middle" x="64.5" y="-75.7" font-family="Times,serif" font-size="14.00">grad:0.0000</text>
</g>
<!-- 6017968624* -->
<g id="node10" class="node">
<title>6017968624*</title>
<ellipse fill="none" stroke="black" cx="169.25" cy="-59" rx="27" ry="18"/>
<text text-anchor="middle" x="169.25" y="-53.95" font-family="Times,serif" font-size="14.00">*</text>
</g>
<!-- 6017973328&#45;&gt;6017968624* -->
<g id="edge5" class="edge">
<title>6017973328&#45;&gt;6017968624*</title>
<path fill="none" stroke="black" d="M106.51,-77.39C115.54,-74.7 124.72,-71.97 133.14,-69.46"/>
<polygon fill="black" stroke="black" points="134.05,-72.84 142.63,-66.63 132.05,-66.13 134.05,-72.84"/>
</g>
<!-- 6017973376 -->
<g id="node7" class="node">
<title>6017973376</title>
<polygon fill="none" stroke="black" points="0.38,-0.5 0.38,-49.5 105.88,-49.5 105.88,-0.5 0.38,-0.5"/>
<text text-anchor="middle" x="11.38" y="-19.95" font-family="Times,serif" font-size="14.00">a</text>
<polyline fill="none" stroke="black" points="22.38,-0.5 22.38,-49.5"/>
<text text-anchor="middle" x="64.12" y="-32.2" font-family="Times,serif" font-size="14.00">data: 2.0000</text>
<polyline fill="none" stroke="black" points="22.38,-25 105.88,-25"/>
<text text-anchor="middle" x="64.12" y="-7.7" font-family="Times,serif" font-size="14.00">grad:0.0000</text>
</g>
<!-- 6017973376&#45;&gt;6017968624* -->
<g id="edge4" class="edge">
<title>6017973376&#45;&gt;6017968624*</title>
<path fill="none" stroke="black" d="M106.18,-40.51C115.42,-43.26 124.83,-46.06 133.44,-48.63"/>
<polygon fill="black" stroke="black" points="132.19,-51.91 142.77,-51.41 134.19,-45.2 132.19,-51.91"/>
</g>
<!-- 6017966272 -->
<g id="node8" class="node">
<title>6017966272</title>
<polygon fill="none" stroke="black" points="232.25,-102.5 232.25,-151.5 343,-151.5 343,-102.5 232.25,-102.5"/>
<text text-anchor="middle" x="243.62" y="-121.95" font-family="Times,serif" font-size="14.00">d</text>
<polyline fill="none" stroke="black" points="255,-102.5 255,-151.5"/>
<text text-anchor="middle" x="299" y="-134.2" font-family="Times,serif" font-size="14.00">data: &#45;1.0000</text>
<polyline fill="none" stroke="black" points="255,-127 343,-127"/>
<text text-anchor="middle" x="299" y="-109.7" font-family="Times,serif" font-size="14.00">grad:0.0000</text>
</g>
<!-- 6017966272&#45;&gt;6017966608+ -->
<g id="edge9" class="edge">
<title>6017966272&#45;&gt;6017966608+</title>
<path fill="none" stroke="black" d="M343.4,-111C352.4,-108.37 361.51,-105.71 369.86,-103.27"/>
<polygon fill="black" stroke="black" points="370.63,-106.69 379.25,-100.52 368.67,-99.97 370.63,-106.69"/>
</g>
<!-- 6017968624 -->
<g id="node9" class="node">
<title>6017968624</title>
<polygon fill="none" stroke="black" points="234.88,-34.5 234.88,-83.5 340.38,-83.5 340.38,-34.5 234.88,-34.5"/>
<text text-anchor="middle" x="245.88" y="-53.95" font-family="Times,serif" font-size="14.00">c</text>
<polyline fill="none" stroke="black" points="256.88,-34.5 256.88,-83.5"/>
<text text-anchor="middle" x="298.62" y="-66.2" font-family="Times,serif" font-size="14.00">data: 6.0000</text>
<polyline fill="none" stroke="black" points="256.88,-59 340.38,-59"/>
<text text-anchor="middle" x="298.62" y="-41.7" font-family="Times,serif" font-size="14.00">grad:0.0000</text>
</g>
<!-- 6017968624&#45;&gt;6017966608+ -->
<g id="edge7" class="edge">
<title>6017968624&#45;&gt;6017966608+</title>
<path fill="none" stroke="black" d="M340.69,-74.21C350.47,-77.07 360.49,-80 369.62,-82.66"/>
<polygon fill="black" stroke="black" points="368.6,-86.01 379.18,-85.46 370.56,-79.29 368.6,-86.01"/>
</g>
<!-- 6017968624*&#45;&gt;6017968624 -->
<g id="edge3" class="edge">
<title>6017968624*&#45;&gt;6017968624</title>
<path fill="none" stroke="black" d="M196.66,-59C204.67,-59 213.84,-59 223.19,-59"/>
<polygon fill="black" stroke="black" points="223.1,-62.5 233.1,-59 223.1,-55.5 223.1,-62.5"/>
</g>
</g>
</svg>
