<?xml version="1.0" encoding="UTF-8" standalone="no"?>
<!DOCTYPE svg PUBLIC "-//W3C//DTD SVG 1.1//EN"
 "http://www.w3.org/Graphics/SVG/1.1/DTD/svg11.dtd">
<!-- Generated by graphviz version 12.2.1 (20241206.2353)
 -->
<!-- Pages: 1 -->
<svg width="833pt" height="194pt"
 viewBox="0.00 0.00 832.75 194.00" xmlns="http://www.w3.org/2000/svg" xmlns:xlink="http://www.w3.org/1999/xlink">
<g id="graph0" class="graph" transform="scale(1 1) rotate(0) translate(4 190)">
<polygon fill="white" stroke="none" points="-4,4 -4,-190 828.75,-190 828.75,4 -4,4"/>
<!-- 6017973760 -->
<g id="node1" class="node">
<title>6017973760</title>
<polygon fill="none" stroke="black" points="471.25,-136.5 471.25,-185.5 579.75,-185.5 579.75,-136.5 471.25,-136.5"/>
<text text-anchor="middle" x="481.5" y="-155.95" font-family="Times,serif" font-size="14.00">f</text>
<polyline fill="none" stroke="black" points="491.75,-136.5 491.75,-185.5"/>
<text text-anchor="middle" x="535.75" y="-168.2" font-family="Times,serif" font-size="14.00">data: &#45;2.0000</text>
<polyline fill="none" stroke="black" points="491.75,-161 579.75,-161"/>
<text text-anchor="middle" x="535.75" y="-143.7" font-family="Times,serif" font-size="14.00">grad:5.0000</text>
</g>
<!-- 6017973808* -->
<g id="node5" class="node">
<title>6017973808*</title>
<ellipse fill="none" stroke="black" cx="642.75" cy="-127" rx="27" ry="18"/>
<text text-anchor="middle" x="642.75" y="-121.95" font-family="Times,serif" font-size="14.00">*</text>
</g>
<!-- 6017973760&#45;&gt;6017973808* -->
<g id="edge6" class="edge">
<title>6017973760&#45;&gt;6017973808*</title>
<path fill="none" stroke="black" d="M580.08,-145.19C589.13,-142.52 598.32,-139.81 606.74,-137.33"/>
<polygon fill="black" stroke="black" points="607.61,-140.72 616.21,-134.54 605.63,-134.01 607.61,-140.72"/>
</g>
<!-- 6017966608 -->
<g id="node2" class="node">
<title>6017966608</title>
<polygon fill="none" stroke="black" points="471.62,-68.5 471.62,-117.5 579.38,-117.5 579.38,-68.5 471.62,-68.5"/>
<text text-anchor="middle" x="482.62" y="-87.95" font-family="Times,serif" font-size="14.00">e</text>
<polyline fill="none" stroke="black" points="493.62,-68.5 493.62,-117.5"/>
<text text-anchor="middle" x="536.5" y="-100.2" font-family="Times,serif" font-size="14.00">data: 5.0000</text>
<polyline fill="none" stroke="black" points="493.62,-93 579.38,-93"/>
<text text-anchor="middle" x="536.5" y="-75.7" font-family="Times,serif" font-size="14.00">grad:&#45;2.0000</text>
</g>
<!-- 6017966608&#45;&gt;6017973808* -->
<g id="edge8" class="edge">
<title>6017966608&#45;&gt;6017973808*</title>
<path fill="none" stroke="black" d="M579.74,-108.71C588.82,-111.39 598.05,-114.11 606.52,-116.61"/>
<polygon fill="black" stroke="black" points="605.47,-119.95 616.05,-119.42 607.45,-113.23 605.47,-119.95"/>
</g>
<!-- 6017966608+ -->
<g id="node3" class="node">
<title>6017966608+</title>
<ellipse fill="none" stroke="black" cx="408.25" cy="-93" rx="27" ry="18"/>
<text text-anchor="middle" x="408.25" y="-87.95" font-family="Times,serif" font-size="14.00">+</text>
</g>
<!-- 6017966608+&#45;&gt;6017966608 -->
<g id="edge1" class="edge">
<title>6017966608+&#45;&gt;6017966608</title>
<path fill="none" stroke="black" d="M435.69,-93C443.08,-93 451.46,-93 460.04,-93"/>
<polygon fill="black" stroke="black" points="459.85,-96.5 469.85,-93 459.85,-89.5 459.85,-96.5"/>
</g>
<!-- 6017973808 -->
<g id="node4" class="node">
<title>6017973808</title>
<polygon fill="none" stroke="black" points="705.75,-102.5 705.75,-151.5 824.75,-151.5 824.75,-102.5 705.75,-102.5"/>
<text text-anchor="middle" x="717.88" y="-121.95" font-family="Times,serif" font-size="14.00">L</text>
<polyline fill="none" stroke="black" points="730,-102.5 730,-151.5"/>
<text text-anchor="middle" x="777.38" y="-134.2" font-family="Times,serif" font-size="14.00">data: &#45;10.0000</text>
<polyline fill="none" stroke="black" points="730,-127 824.75,-127"/>
<text text-anchor="middle" x="777.38" y="-109.7" font-family="Times,serif" font-size="14.00">grad:1.0000</text>
</g>
<!-- 6017973808*&#45;&gt;6017973808 -->
<g id="edge2" class="edge">
<title>6017973808*&#45;&gt;6017973808</title>
<path fill="none" stroke="black" d="M670.19,-127C677.34,-127 685.42,-127 693.77,-127"/>
<polygon fill="black" stroke="black" points="693.75,-130.5 703.75,-127 693.75,-123.5 693.75,-130.5"/>
</g>
<!-- 6017973328 -->
<g id="node6" class="node">
<title>6017973328</title>
<polygon fill="none" stroke="black" points="0,-68.5 0,-117.5 108.5,-117.5 108.5,-68.5 0,-68.5"/>
<text text-anchor="middle" x="11.38" y="-87.95" font-family="Times,serif" font-size="14.00">b</text>
<polyline fill="none" stroke="black" points="22.75,-68.5 22.75,-117.5"/>
<text text-anchor="middle" x="65.62" y="-100.2" font-family="Times,serif" font-size="14.00">data: 3.0000</text>
<polyline fill="none" stroke="black" points="22.75,-93 108.5,-93"/>
<text text-anchor="middle" x="65.62" y="-75.7" font-family="Times,serif" font-size="14.00">grad:&#45;4.0000</text>
</g>
<!-- 6017968624* -->
<g id="node10" class="node">
<title>6017968624*</title>
<ellipse fill="none" stroke="black" cx="171.5" cy="-59" rx="27" ry="18"/>
<text text-anchor="middle" x="171.5" y="-53.95" font-family="Times,serif" font-size="14.00">*</text>
</g>
<!-- 6017973328&#45;&gt;6017968624* -->
<g id="edge5" class="edge">
<title>6017973328&#45;&gt;6017968624*</title>
<path fill="none" stroke="black" d="M108.83,-77.19C117.88,-74.52 127.07,-71.81 135.49,-69.33"/>
<polygon fill="black" stroke="black" points="136.36,-72.72 144.96,-66.54 134.38,-66.01 136.36,-72.72"/>
</g>
<!-- 6017973376 -->
<g id="node7" class="node">
<title>6017973376</title>
<polygon fill="none" stroke="black" points="0.38,-0.5 0.38,-49.5 108.12,-49.5 108.12,-0.5 0.38,-0.5"/>
<text text-anchor="middle" x="11.38" y="-19.95" font-family="Times,serif" font-size="14.00">a</text>
<polyline fill="none" stroke="black" points="22.38,-0.5 22.38,-49.5"/>
<text text-anchor="middle" x="65.25" y="-32.2" font-family="Times,serif" font-size="14.00">data: 2.0000</text>
<polyline fill="none" stroke="black" points="22.38,-25 108.12,-25"/>
<text text-anchor="middle" x="65.25" y="-7.7" font-family="Times,serif" font-size="14.00">grad:&#45;6.0000</text>
</g>
<!-- 6017973376&#45;&gt;6017968624* -->
<g id="edge4" class="edge">
<title>6017973376&#45;&gt;6017968624*</title>
<path fill="none" stroke="black" d="M108.49,-40.71C117.57,-43.39 126.8,-46.11 135.27,-48.61"/>
<polygon fill="black" stroke="black" points="134.22,-51.95 144.8,-51.42 136.2,-45.23 134.22,-51.95"/>
</g>
<!-- 6017966272 -->
<g id="node8" class="node">
<title>6017966272</title>
<polygon fill="none" stroke="black" points="234.5,-102.5 234.5,-151.5 345.25,-151.5 345.25,-102.5 234.5,-102.5"/>
<text text-anchor="middle" x="245.88" y="-121.95" font-family="Times,serif" font-size="14.00">d</text>
<polyline fill="none" stroke="black" points="257.25,-102.5 257.25,-151.5"/>
<text text-anchor="middle" x="301.25" y="-134.2" font-family="Times,serif" font-size="14.00">data: &#45;1.0000</text>
<polyline fill="none" stroke="black" points="257.25,-127 345.25,-127"/>
<text text-anchor="middle" x="301.25" y="-109.7" font-family="Times,serif" font-size="14.00">grad:&#45;2.0000</text>
</g>
<!-- 6017966272&#45;&gt;6017966608+ -->
<g id="edge9" class="edge">
<title>6017966272&#45;&gt;6017966608+</title>
<path fill="none" stroke="black" d="M345.65,-111C354.65,-108.37 363.76,-105.71 372.11,-103.27"/>
<polygon fill="black" stroke="black" points="372.88,-106.69 381.5,-100.52 370.92,-99.97 372.88,-106.69"/>
</g>
<!-- 6017968624 -->
<g id="node9" class="node">
<title>6017968624</title>
<polygon fill="none" stroke="black" points="236,-34.5 236,-83.5 343.75,-83.5 343.75,-34.5 236,-34.5"/>
<text text-anchor="middle" x="247" y="-53.95" font-family="Times,serif" font-size="14.00">c</text>
<polyline fill="none" stroke="black" points="258,-34.5 258,-83.5"/>
<text text-anchor="middle" x="300.88" y="-66.2" font-family="Times,serif" font-size="14.00">data: 6.0000</text>
<polyline fill="none" stroke="black" points="258,-59 343.75,-59"/>
<text text-anchor="middle" x="300.88" y="-41.7" font-family="Times,serif" font-size="14.00">grad:&#45;2.0000</text>
</g>
<!-- 6017968624&#45;&gt;6017966608+ -->
<g id="edge7" class="edge">
<title>6017968624&#45;&gt;6017966608+</title>
<path fill="none" stroke="black" d="M343.95,-74.51C353.56,-77.32 363.36,-80.18 372.29,-82.79"/>
<polygon fill="black" stroke="black" points="371.01,-86.06 381.59,-85.5 372.98,-79.34 371.01,-86.06"/>
</g>
<!-- 6017968624*&#45;&gt;6017968624 -->
<g id="edge3" class="edge">
<title>6017968624*&#45;&gt;6017968624</title>
<path fill="none" stroke="black" d="M198.91,-59C206.64,-59 215.45,-59 224.47,-59"/>
<polygon fill="black" stroke="black" points="224.41,-62.5 234.41,-59 224.41,-55.5 224.41,-62.5"/>
</g>
</g>
</svg>
