<?xml version="1.0" encoding="UTF-8" standalone="no"?>
<!DOCTYPE svg PUBLIC "-//W3C//DTD SVG 1.1//EN"
 "http://www.w3.org/Graphics/SVG/1.1/DTD/svg11.dtd">
<!-- Generated by graphviz version 12.2.1 (20241206.2353)
 -->
<!-- Pages: 1 -->
<svg width="517pt" height="100pt"
 viewBox="0.00 0.00 517.25 100.00" xmlns="http://www.w3.org/2000/svg" xmlns:xlink="http://www.w3.org/1999/xlink">
<g id="graph0" class="graph" transform="scale(1 1) rotate(0) translate(4 96)">
<polygon fill="white" stroke="none" points="-4,4 -4,-96 513.25,-96 513.25,4 -4,4"/>
<!-- 5093039120 -->
<g id="node1" class="node">
<title>5093039120</title>
<polygon fill="none" stroke="black" points="209.5,-55.5 209.5,-91.5 293,-91.5 293,-55.5 209.5,-55.5"/>
<text text-anchor="middle" x="251.25" y="-68.7" font-family="Times,serif" font-size="14.00">data: 6.0000</text>
</g>
<!-- 4708769648+ -->
<g id="node7" class="node">
<title>4708769648+</title>
<ellipse fill="none" stroke="black" cx="356" cy="-45.5" rx="27" ry="18"/>
<text text-anchor="middle" x="356" y="-40.45" font-family="Times,serif" font-size="14.00">+</text>
</g>
<!-- 5093039120&#45;&gt;4708769648+ -->
<g id="edge6" class="edge">
<title>5093039120&#45;&gt;4708769648+</title>
<path fill="none" stroke="black" d="M293.45,-62.27C302.13,-59.91 311.2,-57.43 319.64,-55.14"/>
<polygon fill="black" stroke="black" points="320.46,-58.54 329.19,-52.53 318.62,-51.79 320.46,-58.54"/>
</g>
<!-- 5093039120* -->
<g id="node2" class="node">
<title>5093039120*</title>
<ellipse fill="none" stroke="black" cx="146.5" cy="-73.5" rx="27" ry="18"/>
<text text-anchor="middle" x="146.5" y="-68.45" font-family="Times,serif" font-size="14.00">*</text>
</g>
<!-- 5093039120*&#45;&gt;5093039120 -->
<g id="edge1" class="edge">
<title>5093039120*&#45;&gt;5093039120</title>
<path fill="none" stroke="black" d="M173.96,-73.5C181.32,-73.5 189.58,-73.5 197.87,-73.5"/>
<polygon fill="black" stroke="black" points="197.61,-77 207.61,-73.5 197.61,-70 197.61,-77"/>
</g>
<!-- 4708767776 -->
<g id="node3" class="node">
<title>4708767776</title>
<polygon fill="none" stroke="black" points="209.5,-0.5 209.5,-36.5 293,-36.5 293,-0.5 209.5,-0.5"/>
<text text-anchor="middle" x="251.25" y="-13.7" font-family="Times,serif" font-size="14.00">data: 5.0000</text>
</g>
<!-- 4708767776&#45;&gt;4708769648+ -->
<g id="edge9" class="edge">
<title>4708767776&#45;&gt;4708769648+</title>
<path fill="none" stroke="black" d="M293.45,-29.33C302.05,-31.59 311.04,-33.95 319.42,-36.15"/>
<polygon fill="black" stroke="black" points="318.33,-39.48 328.89,-38.64 320.11,-32.71 318.33,-39.48"/>
</g>
<!-- 4708767776+ -->
<g id="node4" class="node">
<title>4708767776+</title>
<ellipse fill="none" stroke="black" cx="146.5" cy="-18.5" rx="27" ry="18"/>
<text text-anchor="middle" x="146.5" y="-13.45" font-family="Times,serif" font-size="14.00">+</text>
</g>
<!-- 4708767776+&#45;&gt;4708767776 -->
<g id="edge2" class="edge">
<title>4708767776+&#45;&gt;4708767776</title>
<path fill="none" stroke="black" d="M173.96,-18.5C181.32,-18.5 189.58,-18.5 197.87,-18.5"/>
<polygon fill="black" stroke="black" points="197.61,-22 207.61,-18.5 197.61,-15 197.61,-22"/>
</g>
<!-- 4708770032 -->
<g id="node5" class="node">
<title>4708770032</title>
<polygon fill="none" stroke="black" points="0,-55.5 0,-91.5 83.5,-91.5 83.5,-55.5 0,-55.5"/>
<text text-anchor="middle" x="41.75" y="-68.7" font-family="Times,serif" font-size="14.00">data: 3.0000</text>
</g>
<!-- 4708770032&#45;&gt;5093039120* -->
<g id="edge4" class="edge">
<title>4708770032&#45;&gt;5093039120*</title>
<path fill="none" stroke="black" d="M83.95,-73.5C91.81,-73.5 100,-73.5 107.75,-73.5"/>
<polygon fill="black" stroke="black" points="107.55,-77 117.55,-73.5 107.55,-70 107.55,-77"/>
</g>
<!-- 4708770032&#45;&gt;4708767776+ -->
<g id="edge8" class="edge">
<title>4708770032&#45;&gt;4708767776+</title>
<path fill="none" stroke="black" d="M77.25,-55.03C89.42,-48.52 103.02,-41.24 114.86,-34.9"/>
<polygon fill="black" stroke="black" points="116.22,-38.14 123.39,-30.34 112.92,-31.97 116.22,-38.14"/>
</g>
<!-- 4708769648 -->
<g id="node6" class="node">
<title>4708769648</title>
<polygon fill="none" stroke="black" points="419,-27.5 419,-63.5 509.25,-63.5 509.25,-27.5 419,-27.5"/>
<text text-anchor="middle" x="464.12" y="-40.7" font-family="Times,serif" font-size="14.00">data: 11.0000</text>
</g>
<!-- 4708769648+&#45;&gt;4708769648 -->
<g id="edge3" class="edge">
<title>4708769648+&#45;&gt;4708769648</title>
<path fill="none" stroke="black" d="M383.23,-45.5C390.58,-45.5 398.85,-45.5 407.22,-45.5"/>
<polygon fill="black" stroke="black" points="407.09,-49 417.09,-45.5 407.09,-42 407.09,-49"/>
</g>
<!-- 4708767680 -->
<g id="node8" class="node">
<title>4708767680</title>
<polygon fill="none" stroke="black" points="0,-0.5 0,-36.5 83.5,-36.5 83.5,-0.5 0,-0.5"/>
<text text-anchor="middle" x="41.75" y="-13.7" font-family="Times,serif" font-size="14.00">data: 2.0000</text>
</g>
<!-- 4708767680&#45;&gt;5093039120* -->
<g id="edge5" class="edge">
<title>4708767680&#45;&gt;5093039120*</title>
<path fill="none" stroke="black" d="M77.25,-36.97C89.42,-43.48 103.02,-50.76 114.86,-57.1"/>
<polygon fill="black" stroke="black" points="112.92,-60.03 123.39,-61.66 116.22,-53.86 112.92,-60.03"/>
</g>
<!-- 4708767680&#45;&gt;4708767776+ -->
<g id="edge7" class="edge">
<title>4708767680&#45;&gt;4708767776+</title>
<path fill="none" stroke="black" d="M83.95,-18.5C91.81,-18.5 100,-18.5 107.75,-18.5"/>
<polygon fill="black" stroke="black" points="107.55,-22 117.55,-18.5 107.55,-15 107.55,-22"/>
</g>
</g>
</svg>
