<?xml version="1.0" encoding="UTF-8" standalone="no"?>
<!DOCTYPE svg PUBLIC "-//W3C//DTD SVG 1.1//EN"
 "http://www.w3.org/Graphics/SVG/1.1/DTD/svg11.dtd">
<!-- Generated by graphviz version 12.2.1 (20241206.2353)
 -->
<!-- Title: My first graph Pages: 1 -->
<svg width="342pt" height="81pt"
 viewBox="0.00 0.00 341.95 81.00" xmlns="http://www.w3.org/2000/svg" xmlns:xlink="http://www.w3.org/1999/xlink">
<g id="graph0" class="graph" transform="scale(1 1) rotate(0) translate(4 77)">
<title>My first graph</title>
<polygon fill="white" stroke="none" points="-4,4 -4,-77 337.95,-77 337.95,4 -4,4"/>
<!-- A -->
<g id="node1" class="node">
<title>A</title>
<ellipse fill="none" stroke="black" cx="37.53" cy="-18" rx="37.53" ry="18"/>
<text text-anchor="middle" x="37.53" y="-12.95" font-family="Times,serif" font-size="14.00">node A</text>
</g>
<!-- B -->
<g id="node2" class="node">
<title>B</title>
<ellipse fill="none" stroke="black" cx="167.35" cy="-55" rx="37.53" ry="18"/>
<text text-anchor="middle" x="167.35" y="-49.95" font-family="Times,serif" font-size="14.00">node B</text>
</g>
<!-- A&#45;&gt;B -->
<g id="edge1" class="edge">
<title>A&#45;&gt;B</title>
<path fill="none" stroke="black" d="M70.46,-27.24C86.59,-31.91 106.39,-37.64 123.8,-42.68"/>
<polygon fill="black" stroke="black" points="122.8,-46.04 133.38,-45.46 124.74,-39.31 122.8,-46.04"/>
<text text-anchor="middle" x="102.44" y="-41.92" font-family="Times,serif" font-size="14.00">AB</text>
</g>
<!-- C -->
<g id="node3" class="node">
<title>C</title>
<ellipse fill="none" stroke="black" cx="296.41" cy="-18" rx="37.53" ry="18"/>
<text text-anchor="middle" x="296.41" y="-12.95" font-family="Times,serif" font-size="14.00">node C</text>
</g>
<!-- A&#45;&gt;C -->
<g id="edge3" class="edge">
<title>A&#45;&gt;C</title>
<path fill="none" stroke="black" d="M74.92,-14.81C91.63,-13.5 111.71,-12.14 129.82,-11.5 163.16,-10.31 171.54,-10.3 204.88,-11.5 218.91,-12 234.13,-12.94 248.02,-13.95"/>
<polygon fill="black" stroke="black" points="247.57,-17.43 257.81,-14.7 248.11,-10.45 247.57,-17.43"/>
<text text-anchor="middle" x="167.35" y="-14.7" font-family="Times,serif" font-size="14.00">AC</text>
</g>
<!-- B&#45;&gt;C -->
<g id="edge2" class="edge">
<title>B&#45;&gt;C</title>
<path fill="none" stroke="black" d="M200.08,-45.76C216,-41.12 235.51,-35.44 252.72,-30.43"/>
<polygon fill="black" stroke="black" points="253.57,-33.83 262.19,-27.67 251.61,-27.11 253.57,-33.83"/>
<text text-anchor="middle" x="231.88" y="-41.92" font-family="Times,serif" font-size="14.00">BC</text>
</g>
</g>
</svg>
