<?xml version="1.0" encoding="UTF-8" standalone="no"?>
<!DOCTYPE svg PUBLIC "-//W3C//DTD SVG 1.1//EN"
 "http://www.w3.org/Graphics/SVG/1.1/DTD/svg11.dtd">
<!-- Generated by graphviz version 12.2.1 (20241206.2353)
 -->
<!-- Pages: 1 -->
<svg width="346pt" height="100pt"
 viewBox="0.00 0.00 345.75 100.00" xmlns="http://www.w3.org/2000/svg" xmlns:xlink="http://www.w3.org/1999/xlink">
<g id="graph0" class="graph" transform="scale(1 1) rotate(0) translate(4 96)">
<polygon fill="white" stroke="none" points="-4,4 -4,-96 341.75,-96 341.75,4 -4,4"/>
<!-- 4421850640 -->
<g id="node1" class="node">
<title>4421850640</title>
<polygon fill="none" stroke="black" points="0.38,-55.5 0.38,-91.5 105.88,-91.5 105.88,-55.5 0.38,-55.5"/>
<text text-anchor="middle" x="11.38" y="-68.7" font-family="Times,serif" font-size="14.00">a</text>
<polyline fill="none" stroke="black" points="22.38,-56 22.38,-91.5"/>
<text text-anchor="middle" x="64.12" y="-68.7" font-family="Times,serif" font-size="14.00">data: 2.0000</text>
</g>
<!-- 4421850688* -->
<g id="node3" class="node">
<title>4421850688*</title>
<ellipse fill="none" stroke="black" cx="169.25" cy="-45.5" rx="27" ry="18"/>
<text text-anchor="middle" x="169.25" y="-40.45" font-family="Times,serif" font-size="14.00">*</text>
</g>
<!-- 4421850640&#45;&gt;4421850688* -->
<g id="edge2" class="edge">
<title>4421850640&#45;&gt;4421850688*</title>
<path fill="none" stroke="black" d="M106.18,-60.73C114.97,-58.57 123.92,-56.38 132.19,-54.35"/>
<polygon fill="black" stroke="black" points="132.98,-57.76 141.86,-51.97 131.31,-50.96 132.98,-57.76"/>
</g>
<!-- 4421850688 -->
<g id="node2" class="node">
<title>4421850688</title>
<polygon fill="none" stroke="black" points="232.25,-27.5 232.25,-63.5 337.75,-63.5 337.75,-27.5 232.25,-27.5"/>
<text text-anchor="middle" x="243.25" y="-40.7" font-family="Times,serif" font-size="14.00">c</text>
<polyline fill="none" stroke="black" points="254.25,-28 254.25,-63.5"/>
<text text-anchor="middle" x="296" y="-40.7" font-family="Times,serif" font-size="14.00">data: 6.0000</text>
</g>
<!-- 4421850688*&#45;&gt;4421850688 -->
<g id="edge1" class="edge">
<title>4421850688*&#45;&gt;4421850688</title>
<path fill="none" stroke="black" d="M196.63,-45.5C203.85,-45.5 212,-45.5 220.35,-45.5"/>
<polygon fill="black" stroke="black" points="220.27,-49 230.27,-45.5 220.27,-42 220.27,-49"/>
</g>
<!-- 4421850592 -->
<g id="node4" class="node">
<title>4421850592</title>
<polygon fill="none" stroke="black" points="0,-0.5 0,-36.5 106.25,-36.5 106.25,-0.5 0,-0.5"/>
<text text-anchor="middle" x="11.38" y="-13.7" font-family="Times,serif" font-size="14.00">b</text>
<polyline fill="none" stroke="black" points="22.75,-1 22.75,-36.5"/>
<text text-anchor="middle" x="64.5" y="-13.7" font-family="Times,serif" font-size="14.00">data: 3.0000</text>
</g>
<!-- 4421850592&#45;&gt;4421850688* -->
<g id="edge3" class="edge">
<title>4421850592&#45;&gt;4421850688*</title>
<path fill="none" stroke="black" d="M106.51,-30.89C115.27,-32.97 124.18,-35.07 132.41,-37.02"/>
<polygon fill="black" stroke="black" points="131.48,-40.4 142.02,-39.29 133.09,-33.59 131.48,-40.4"/>
</g>
</g>
</svg>
