<?xml version="1.0" encoding="UTF-8" standalone="no"?>
<!DOCTYPE svg PUBLIC "-//W3C//DTD SVG 1.1//EN"
 "http://www.w3.org/Graphics/SVG/1.1/DTD/svg11.dtd">
<!-- Generated by graphviz version 12.2.1 (20241206.2353)
 -->
<!-- Pages: 1 -->
<svg width="517pt" height="126pt"
 viewBox="0.00 0.00 517.25 126.00" xmlns="http://www.w3.org/2000/svg" xmlns:xlink="http://www.w3.org/1999/xlink">
<g id="graph0" class="graph" transform="scale(1 1) rotate(0) translate(4 122)">
<polygon fill="white" stroke="none" points="-4,4 -4,-122 513.25,-122 513.25,4 -4,4"/>
<!-- 4421850640 -->
<g id="node1" class="node">
<title>4421850640</title>
<polygon fill="none" stroke="black" points="0,-68.5 0,-117.5 83.5,-117.5 83.5,-68.5 0,-68.5"/>
<text text-anchor="middle" x="41.75" y="-100.2" font-family="Times,serif" font-size="14.00">a</text>
<polyline fill="none" stroke="black" points="0,-93 83.5,-93"/>
<text text-anchor="middle" x="41.75" y="-75.7" font-family="Times,serif" font-size="14.00">data: 2.0000</text>
</g>
<!-- 4421850688* -->
<g id="node3" class="node">
<title>4421850688*</title>
<ellipse fill="none" stroke="black" cx="146.5" cy="-93" rx="27" ry="18"/>
<text text-anchor="middle" x="146.5" y="-87.95" font-family="Times,serif" font-size="14.00">*</text>
</g>
<!-- 4421850640&#45;&gt;4421850688* -->
<g id="edge8" class="edge">
<title>4421850640&#45;&gt;4421850688*</title>
<path fill="none" stroke="black" d="M83.95,-93C91.81,-93 100,-93 107.75,-93"/>
<polygon fill="black" stroke="black" points="107.55,-96.5 117.55,-93 107.55,-89.5 107.55,-96.5"/>
</g>
<!-- 4421850784+ -->
<g id="node7" class="node">
<title>4421850784+</title>
<ellipse fill="none" stroke="black" cx="146.5" cy="-25" rx="27" ry="18"/>
<text text-anchor="middle" x="146.5" y="-19.95" font-family="Times,serif" font-size="14.00">+</text>
</g>
<!-- 4421850640&#45;&gt;4421850784+ -->
<g id="edge9" class="edge">
<title>4421850640&#45;&gt;4421850784+</title>
<path fill="none" stroke="black" d="M80.43,-68.07C92.56,-60.03 105.8,-51.27 117.15,-43.76"/>
<polygon fill="black" stroke="black" points="118.89,-46.81 125.3,-38.37 115.03,-40.97 118.89,-46.81"/>
</g>
<!-- 4421850688 -->
<g id="node2" class="node">
<title>4421850688</title>
<polygon fill="none" stroke="black" points="209.5,-68.5 209.5,-117.5 293,-117.5 293,-68.5 209.5,-68.5"/>
<text text-anchor="middle" x="251.25" y="-100.2" font-family="Times,serif" font-size="14.00">c</text>
<polyline fill="none" stroke="black" points="209.5,-93 293,-93"/>
<text text-anchor="middle" x="251.25" y="-75.7" font-family="Times,serif" font-size="14.00">data: 6.0000</text>
</g>
<!-- 4421850736+ -->
<g id="node5" class="node">
<title>4421850736+</title>
<ellipse fill="none" stroke="black" cx="356" cy="-59" rx="27" ry="18"/>
<text text-anchor="middle" x="356" y="-53.95" font-family="Times,serif" font-size="14.00">+</text>
</g>
<!-- 4421850688&#45;&gt;4421850736+ -->
<g id="edge4" class="edge">
<title>4421850688&#45;&gt;4421850736+</title>
<path fill="none" stroke="black" d="M293.45,-79.37C302.38,-76.41 311.73,-73.32 320.38,-70.46"/>
<polygon fill="black" stroke="black" points="321.41,-73.8 329.8,-67.34 319.21,-67.16 321.41,-73.8"/>
</g>
<!-- 4421850688*&#45;&gt;4421850688 -->
<g id="edge1" class="edge">
<title>4421850688*&#45;&gt;4421850688</title>
<path fill="none" stroke="black" d="M173.96,-93C181.32,-93 189.58,-93 197.87,-93"/>
<polygon fill="black" stroke="black" points="197.61,-96.5 207.61,-93 197.61,-89.5 197.61,-96.5"/>
</g>
<!-- 4421850736 -->
<g id="node4" class="node">
<title>4421850736</title>
<polygon fill="none" stroke="black" points="419,-34.5 419,-83.5 509.25,-83.5 509.25,-34.5 419,-34.5"/>
<text text-anchor="middle" x="464.12" y="-66.2" font-family="Times,serif" font-size="14.00">g</text>
<polyline fill="none" stroke="black" points="419,-59 509.25,-59"/>
<text text-anchor="middle" x="464.12" y="-41.7" font-family="Times,serif" font-size="14.00">data: 11.0000</text>
</g>
<!-- 4421850736+&#45;&gt;4421850736 -->
<g id="edge2" class="edge">
<title>4421850736+&#45;&gt;4421850736</title>
<path fill="none" stroke="black" d="M383.23,-59C390.58,-59 398.85,-59 407.22,-59"/>
<polygon fill="black" stroke="black" points="407.09,-62.5 417.09,-59 407.09,-55.5 407.09,-62.5"/>
</g>
<!-- 4421850784 -->
<g id="node6" class="node">
<title>4421850784</title>
<polygon fill="none" stroke="black" points="209.5,-0.5 209.5,-49.5 293,-49.5 293,-0.5 209.5,-0.5"/>
<text text-anchor="middle" x="251.25" y="-32.2" font-family="Times,serif" font-size="14.00"> </text>
<polyline fill="none" stroke="black" points="209.5,-25 293,-25"/>
<text text-anchor="middle" x="251.25" y="-7.7" font-family="Times,serif" font-size="14.00">data: 5.0000</text>
</g>
<!-- 4421850784&#45;&gt;4421850736+ -->
<g id="edge5" class="edge">
<title>4421850784&#45;&gt;4421850736+</title>
<path fill="none" stroke="black" d="M293.45,-38.63C302.38,-41.59 311.73,-44.68 320.38,-47.54"/>
<polygon fill="black" stroke="black" points="319.21,-50.84 329.8,-50.66 321.41,-44.2 319.21,-50.84"/>
</g>
<!-- 4421850784+&#45;&gt;4421850784 -->
<g id="edge3" class="edge">
<title>4421850784+&#45;&gt;4421850784</title>
<path fill="none" stroke="black" d="M173.96,-25C181.32,-25 189.58,-25 197.87,-25"/>
<polygon fill="black" stroke="black" points="197.61,-28.5 207.61,-25 197.61,-21.5 197.61,-28.5"/>
</g>
<!-- 4421850592 -->
<g id="node8" class="node">
<title>4421850592</title>
<polygon fill="none" stroke="black" points="0,-0.5 0,-49.5 83.5,-49.5 83.5,-0.5 0,-0.5"/>
<text text-anchor="middle" x="41.75" y="-32.2" font-family="Times,serif" font-size="14.00">b</text>
<polyline fill="none" stroke="black" points="0,-25 83.5,-25"/>
<text text-anchor="middle" x="41.75" y="-7.7" font-family="Times,serif" font-size="14.00">data: 3.0000</text>
</g>
<!-- 4421850592&#45;&gt;4421850688* -->
<g id="edge7" class="edge">
<title>4421850592&#45;&gt;4421850688*</title>
<path fill="none" stroke="black" d="M80.43,-49.93C92.56,-57.97 105.8,-66.73 117.15,-74.24"/>
<polygon fill="black" stroke="black" points="115.03,-77.03 125.3,-79.63 118.89,-71.19 115.03,-77.03"/>
</g>
<!-- 4421850592&#45;&gt;4421850784+ -->
<g id="edge6" class="edge">
<title>4421850592&#45;&gt;4421850784+</title>
<path fill="none" stroke="black" d="M83.95,-25C91.81,-25 100,-25 107.75,-25"/>
<polygon fill="black" stroke="black" points="107.55,-28.5 117.55,-25 107.55,-21.5 107.55,-28.5"/>
</g>
</g>
</svg>
