<?xml version="1.0" encoding="UTF-8" standalone="no"?>
<!DOCTYPE svg PUBLIC "-//W3C//DTD SVG 1.1//EN"
 "http://www.w3.org/Graphics/SVG/1.1/DTD/svg11.dtd">
<!-- Generated by graphviz version 12.2.1 (20241206.2353)
 -->
<!-- Pages: 1 -->
<svg width="585pt" height="100pt"
 viewBox="0.00 0.00 584.75 100.00" xmlns="http://www.w3.org/2000/svg" xmlns:xlink="http://www.w3.org/1999/xlink">
<g id="graph0" class="graph" transform="scale(1 1) rotate(0) translate(4 96)">
<polygon fill="white" stroke="none" points="-4,4 -4,-96 580.75,-96 580.75,4 -4,4"/>
<!-- 4421850640 -->
<g id="node1" class="node">
<title>4421850640</title>
<polygon fill="none" stroke="black" points="0.38,-55.5 0.38,-91.5 105.88,-91.5 105.88,-55.5 0.38,-55.5"/>
<text text-anchor="middle" x="11.38" y="-68.7" font-family="Times,serif" font-size="14.00">a</text>
<polyline fill="none" stroke="black" points="22.38,-56 22.38,-91.5"/>
<text text-anchor="middle" x="64.12" y="-68.7" font-family="Times,serif" font-size="14.00">data: 2.0000</text>
</g>
<!-- 4421850688* -->
<g id="node3" class="node">
<title>4421850688*</title>
<ellipse fill="none" stroke="black" cx="169.25" cy="-73.5" rx="27" ry="18"/>
<text text-anchor="middle" x="169.25" y="-68.45" font-family="Times,serif" font-size="14.00">*</text>
</g>
<!-- 4421850640&#45;&gt;4421850688* -->
<g id="edge8" class="edge">
<title>4421850640&#45;&gt;4421850688*</title>
<path fill="none" stroke="black" d="M106.18,-73.5C114.38,-73.5 122.71,-73.5 130.51,-73.5"/>
<polygon fill="black" stroke="black" points="130.31,-77 140.31,-73.5 130.31,-70 130.31,-77"/>
</g>
<!-- 4421850784+ -->
<g id="node7" class="node">
<title>4421850784+</title>
<ellipse fill="none" stroke="black" cx="169.25" cy="-18.5" rx="27" ry="18"/>
<text text-anchor="middle" x="169.25" y="-13.45" font-family="Times,serif" font-size="14.00">+</text>
</g>
<!-- 4421850640&#45;&gt;4421850784+ -->
<g id="edge9" class="edge">
<title>4421850640&#45;&gt;4421850784+</title>
<path fill="none" stroke="black" d="M92.44,-55.03C106.75,-48.14 122.83,-40.39 136.48,-33.81"/>
<polygon fill="black" stroke="black" points="137.98,-36.97 145.47,-29.48 134.94,-30.67 137.98,-36.97"/>
</g>
<!-- 4421850688 -->
<g id="node2" class="node">
<title>4421850688</title>
<polygon fill="none" stroke="black" points="232.25,-55.5 232.25,-91.5 337.75,-91.5 337.75,-55.5 232.25,-55.5"/>
<text text-anchor="middle" x="243.25" y="-68.7" font-family="Times,serif" font-size="14.00">c</text>
<polyline fill="none" stroke="black" points="254.25,-56 254.25,-91.5"/>
<text text-anchor="middle" x="296" y="-68.7" font-family="Times,serif" font-size="14.00">data: 6.0000</text>
</g>
<!-- 4421850736+ -->
<g id="node5" class="node">
<title>4421850736+</title>
<ellipse fill="none" stroke="black" cx="400.75" cy="-45.5" rx="27" ry="18"/>
<text text-anchor="middle" x="400.75" y="-40.45" font-family="Times,serif" font-size="14.00">+</text>
</g>
<!-- 4421850688&#45;&gt;4421850736+ -->
<g id="edge4" class="edge">
<title>4421850688&#45;&gt;4421850736+</title>
<path fill="none" stroke="black" d="M338.21,-60.65C346.95,-58.5 355.83,-56.31 364.03,-54.29"/>
<polygon fill="black" stroke="black" points="364.73,-57.73 373.6,-51.94 363.06,-50.93 364.73,-57.73"/>
</g>
<!-- 4421850688*&#45;&gt;4421850688 -->
<g id="edge1" class="edge">
<title>4421850688*&#45;&gt;4421850688</title>
<path fill="none" stroke="black" d="M196.63,-73.5C203.85,-73.5 212,-73.5 220.35,-73.5"/>
<polygon fill="black" stroke="black" points="220.27,-77 230.27,-73.5 220.27,-70 220.27,-77"/>
</g>
<!-- 4421850736 -->
<g id="node4" class="node">
<title>4421850736</title>
<polygon fill="none" stroke="black" points="463.75,-27.5 463.75,-63.5 576.75,-63.5 576.75,-27.5 463.75,-27.5"/>
<text text-anchor="middle" x="475.12" y="-40.7" font-family="Times,serif" font-size="14.00">g</text>
<polyline fill="none" stroke="black" points="486.5,-28 486.5,-63.5"/>
<text text-anchor="middle" x="531.62" y="-40.7" font-family="Times,serif" font-size="14.00">data: 11.0000</text>
</g>
<!-- 4421850736+&#45;&gt;4421850736 -->
<g id="edge2" class="edge">
<title>4421850736+&#45;&gt;4421850736</title>
<path fill="none" stroke="black" d="M428.12,-45.5C435.46,-45.5 443.78,-45.5 452.33,-45.5"/>
<polygon fill="black" stroke="black" points="452.14,-49 462.14,-45.5 452.14,-42 452.14,-49"/>
</g>
<!-- 4421850784 -->
<g id="node6" class="node">
<title>4421850784</title>
<polygon fill="none" stroke="black" points="233.38,-0.5 233.38,-36.5 336.62,-36.5 336.62,-0.5 233.38,-0.5"/>
<text text-anchor="middle" x="243.25" y="-13.7" font-family="Times,serif" font-size="14.00"> </text>
<polyline fill="none" stroke="black" points="253.12,-1 253.12,-36.5"/>
<text text-anchor="middle" x="294.88" y="-13.7" font-family="Times,serif" font-size="14.00">data: 5.0000</text>
</g>
<!-- 4421850784&#45;&gt;4421850736+ -->
<g id="edge5" class="edge">
<title>4421850784&#45;&gt;4421850736+</title>
<path fill="none" stroke="black" d="M336.89,-30.58C345.91,-32.72 355.15,-34.91 363.66,-36.93"/>
<polygon fill="black" stroke="black" points="362.72,-40.31 373.26,-39.21 364.34,-33.5 362.72,-40.31"/>
</g>
<!-- 4421850784+&#45;&gt;4421850784 -->
<g id="edge3" class="edge">
<title>4421850784+&#45;&gt;4421850784</title>
<path fill="none" stroke="black" d="M196.63,-18.5C204.29,-18.5 213,-18.5 221.88,-18.5"/>
<polygon fill="black" stroke="black" points="221.64,-22 231.64,-18.5 221.64,-15 221.64,-22"/>
</g>
<!-- 4421850592 -->
<g id="node8" class="node">
<title>4421850592</title>
<polygon fill="none" stroke="black" points="0,-0.5 0,-36.5 106.25,-36.5 106.25,-0.5 0,-0.5"/>
<text text-anchor="middle" x="11.38" y="-13.7" font-family="Times,serif" font-size="14.00">b</text>
<polyline fill="none" stroke="black" points="22.75,-1 22.75,-36.5"/>
<text text-anchor="middle" x="64.5" y="-13.7" font-family="Times,serif" font-size="14.00">data: 3.0000</text>
</g>
<!-- 4421850592&#45;&gt;4421850688* -->
<g id="edge7" class="edge">
<title>4421850592&#45;&gt;4421850688*</title>
<path fill="none" stroke="black" d="M92.44,-36.97C106.75,-43.86 122.83,-51.61 136.48,-58.19"/>
<polygon fill="black" stroke="black" points="134.94,-61.33 145.47,-62.52 137.98,-55.03 134.94,-61.33"/>
</g>
<!-- 4421850592&#45;&gt;4421850784+ -->
<g id="edge6" class="edge">
<title>4421850592&#45;&gt;4421850784+</title>
<path fill="none" stroke="black" d="M106.51,-18.5C114.68,-18.5 122.98,-18.5 130.74,-18.5"/>
<polygon fill="black" stroke="black" points="130.48,-22 140.48,-18.5 130.48,-15 130.48,-22"/>
</g>
</g>
</svg>
