<?xml version="1.0" encoding="UTF-8" standalone="no"?>
<!DOCTYPE svg PUBLIC "-//W3C//DTD SVG 1.1//EN"
 "http://www.w3.org/Graphics/SVG/1.1/DTD/svg11.dtd">
<!-- Generated by graphviz version 12.2.1 (20241206.2353)
 -->
<!-- Pages: 1 -->
<svg width="583pt" height="100pt"
 viewBox="0.00 0.00 582.50 100.00" xmlns="http://www.w3.org/2000/svg" xmlns:xlink="http://www.w3.org/1999/xlink">
<g id="graph0" class="graph" transform="scale(1 1) rotate(0) translate(4 96)">
<polygon fill="white" stroke="none" points="-4,4 -4,-96 578.5,-96 578.5,4 -4,4"/>
<!-- 4421855248 -->
<g id="node1" class="node">
<title>4421855248</title>
<polygon fill="none" stroke="black" points="463.75,-27.5 463.75,-63.5 574.5,-63.5 574.5,-27.5 463.75,-27.5"/>
<text text-anchor="middle" x="474" y="-40.7" font-family="Times,serif" font-size="14.00">f</text>
<polyline fill="none" stroke="black" points="484.25,-28 484.25,-63.5"/>
<text text-anchor="middle" x="529.38" y="-40.7" font-family="Times,serif" font-size="14.00">data: 12.0000</text>
</g>
<!-- 4421855248+ -->
<g id="node2" class="node">
<title>4421855248+</title>
<ellipse fill="none" stroke="black" cx="400.75" cy="-45.5" rx="27" ry="18"/>
<text text-anchor="middle" x="400.75" y="-40.45" font-family="Times,serif" font-size="14.00">+</text>
</g>
<!-- 4421855248+&#45;&gt;4421855248 -->
<g id="edge1" class="edge">
<title>4421855248+&#45;&gt;4421855248</title>
<path fill="none" stroke="black" d="M428.16,-45.5C435.35,-45.5 443.48,-45.5 451.83,-45.5"/>
<polygon fill="black" stroke="black" points="451.78,-49 461.78,-45.5 451.78,-42 451.78,-49"/>
</g>
<!-- 4421850688 -->
<g id="node3" class="node">
<title>4421850688</title>
<polygon fill="none" stroke="black" points="232.25,-27.5 232.25,-63.5 337.75,-63.5 337.75,-27.5 232.25,-27.5"/>
<text text-anchor="middle" x="243.25" y="-40.7" font-family="Times,serif" font-size="14.00">c</text>
<polyline fill="none" stroke="black" points="254.25,-28 254.25,-63.5"/>
<text text-anchor="middle" x="296" y="-40.7" font-family="Times,serif" font-size="14.00">data: 6.0000</text>
</g>
<!-- 4421850688&#45;&gt;4421855248+ -->
<g id="edge3" class="edge">
<title>4421850688&#45;&gt;4421855248+</title>
<path fill="none" stroke="black" d="M338.21,-45.5C346.19,-45.5 354.28,-45.5 361.87,-45.5"/>
<polygon fill="black" stroke="black" points="361.76,-49 371.76,-45.5 361.76,-42 361.76,-49"/>
</g>
<!-- 4421850688* -->
<g id="node4" class="node">
<title>4421850688*</title>
<ellipse fill="none" stroke="black" cx="169.25" cy="-45.5" rx="27" ry="18"/>
<text text-anchor="middle" x="169.25" y="-40.45" font-family="Times,serif" font-size="14.00">*</text>
</g>
<!-- 4421850688*&#45;&gt;4421850688 -->
<g id="edge2" class="edge">
<title>4421850688*&#45;&gt;4421850688</title>
<path fill="none" stroke="black" d="M196.63,-45.5C203.85,-45.5 212,-45.5 220.35,-45.5"/>
<polygon fill="black" stroke="black" points="220.27,-49 230.27,-45.5 220.27,-42 220.27,-49"/>
</g>
<!-- 4421850592 -->
<g id="node5" class="node">
<title>4421850592</title>
<polygon fill="none" stroke="black" points="0,-55.5 0,-91.5 106.25,-91.5 106.25,-55.5 0,-55.5"/>
<text text-anchor="middle" x="11.38" y="-68.7" font-family="Times,serif" font-size="14.00">b</text>
<polyline fill="none" stroke="black" points="22.75,-56 22.75,-91.5"/>
<text text-anchor="middle" x="64.5" y="-68.7" font-family="Times,serif" font-size="14.00">data: 3.0000</text>
</g>
<!-- 4421850592&#45;&gt;4421850688* -->
<g id="edge5" class="edge">
<title>4421850592&#45;&gt;4421850688*</title>
<path fill="none" stroke="black" d="M106.51,-60.65C115.27,-58.5 124.18,-56.31 132.41,-54.29"/>
<polygon fill="black" stroke="black" points="133.14,-57.72 142.02,-51.94 131.48,-50.92 133.14,-57.72"/>
</g>
<!-- 4421850640 -->
<g id="node6" class="node">
<title>4421850640</title>
<polygon fill="none" stroke="black" points="0.38,-0.5 0.38,-36.5 105.88,-36.5 105.88,-0.5 0.38,-0.5"/>
<text text-anchor="middle" x="11.38" y="-13.7" font-family="Times,serif" font-size="14.00">a</text>
<polyline fill="none" stroke="black" points="22.38,-1 22.38,-36.5"/>
<text text-anchor="middle" x="64.12" y="-13.7" font-family="Times,serif" font-size="14.00">data: 2.0000</text>
</g>
<!-- 4421850640&#45;&gt;4421850688* -->
<g id="edge4" class="edge">
<title>4421850640&#45;&gt;4421850688*</title>
<path fill="none" stroke="black" d="M106.18,-30.81C114.97,-32.89 123.92,-35.01 132.19,-36.97"/>
<polygon fill="black" stroke="black" points="131.32,-40.36 141.86,-39.26 132.93,-33.55 131.32,-40.36"/>
</g>
</g>
</svg>
