<?xml version="1.0" encoding="UTF-8" standalone="no"?>
<!DOCTYPE svg PUBLIC "-//W3C//DTD SVG 1.1//EN"
 "http://www.w3.org/Graphics/SVG/1.1/DTD/svg11.dtd">
<!-- Generated by graphviz version 12.2.1 (20241206.2353)
 -->
<!-- Pages: 1 -->
<svg width="583pt" height="128pt"
 viewBox="0.00 0.00 582.50 128.00" xmlns="http://www.w3.org/2000/svg" xmlns:xlink="http://www.w3.org/1999/xlink">
<g id="graph0" class="graph" transform="scale(1 1) rotate(0) translate(4 124)">
<polygon fill="white" stroke="none" points="-4,4 -4,-124 578.5,-124 578.5,4 -4,4"/>
<!-- 4421850640 -->
<g id="node1" class="node">
<title>4421850640</title>
<polygon fill="none" stroke="black" points="0.38,-83.5 0.38,-119.5 105.88,-119.5 105.88,-83.5 0.38,-83.5"/>
<text text-anchor="middle" x="11.38" y="-96.7" font-family="Times,serif" font-size="14.00">a</text>
<polyline fill="none" stroke="black" points="22.38,-84 22.38,-119.5"/>
<text text-anchor="middle" x="64.12" y="-96.7" font-family="Times,serif" font-size="14.00">data: 2.0000</text>
</g>
<!-- 4421850688* -->
<g id="node3" class="node">
<title>4421850688*</title>
<ellipse fill="none" stroke="black" cx="169.25" cy="-73.5" rx="27" ry="18"/>
<text text-anchor="middle" x="169.25" y="-68.45" font-family="Times,serif" font-size="14.00">*</text>
</g>
<!-- 4421850640&#45;&gt;4421850688* -->
<g id="edge5" class="edge">
<title>4421850640&#45;&gt;4421850688*</title>
<path fill="none" stroke="black" d="M106.18,-88.73C114.97,-86.57 123.92,-84.38 132.19,-82.35"/>
<polygon fill="black" stroke="black" points="132.98,-85.76 141.86,-79.97 131.31,-78.96 132.98,-85.76"/>
</g>
<!-- 4421850688 -->
<g id="node2" class="node">
<title>4421850688</title>
<polygon fill="none" stroke="black" points="234.88,-55.5 234.88,-91.5 340.38,-91.5 340.38,-55.5 234.88,-55.5"/>
<text text-anchor="middle" x="245.88" y="-68.7" font-family="Times,serif" font-size="14.00">c</text>
<polyline fill="none" stroke="black" points="256.88,-56 256.88,-91.5"/>
<text text-anchor="middle" x="298.62" y="-68.7" font-family="Times,serif" font-size="14.00">data: 6.0000</text>
</g>
<!-- 4421849488+ -->
<g id="node6" class="node">
<title>4421849488+</title>
<ellipse fill="none" stroke="black" cx="406" cy="-45.5" rx="27" ry="18"/>
<text text-anchor="middle" x="406" y="-40.45" font-family="Times,serif" font-size="14.00">+</text>
</g>
<!-- 4421850688&#45;&gt;4421849488+ -->
<g id="edge3" class="edge">
<title>4421850688&#45;&gt;4421849488+</title>
<path fill="none" stroke="black" d="M340.69,-60.97C350.2,-58.69 359.93,-56.34 368.85,-54.2"/>
<polygon fill="black" stroke="black" points="369.64,-57.61 378.55,-51.86 368.01,-50.8 369.64,-57.61"/>
</g>
<!-- 4421850688*&#45;&gt;4421850688 -->
<g id="edge1" class="edge">
<title>4421850688*&#45;&gt;4421850688</title>
<path fill="none" stroke="black" d="M196.66,-73.5C204.67,-73.5 213.84,-73.5 223.19,-73.5"/>
<polygon fill="black" stroke="black" points="223.1,-77 233.1,-73.5 223.1,-70 223.1,-77"/>
</g>
<!-- 4421849968 -->
<g id="node4" class="node">
<title>4421849968</title>
<polygon fill="none" stroke="black" points="232.25,-0.5 232.25,-36.5 343,-36.5 343,-0.5 232.25,-0.5"/>
<text text-anchor="middle" x="243.62" y="-13.7" font-family="Times,serif" font-size="14.00">d</text>
<polyline fill="none" stroke="black" points="255,-1 255,-36.5"/>
<text text-anchor="middle" x="299" y="-13.7" font-family="Times,serif" font-size="14.00">data: &#45;1.0000</text>
</g>
<!-- 4421849968&#45;&gt;4421849488+ -->
<g id="edge4" class="edge">
<title>4421849968&#45;&gt;4421849488+</title>
<path fill="none" stroke="black" d="M343.4,-31.21C352.14,-33.24 360.98,-35.29 369.13,-37.18"/>
<polygon fill="black" stroke="black" points="368.1,-40.53 378.63,-39.38 369.68,-33.71 368.1,-40.53"/>
</g>
<!-- 4421849488 -->
<g id="node5" class="node">
<title>4421849488</title>
<polygon fill="none" stroke="black" points="469,-27.5 469,-63.5 574.5,-63.5 574.5,-27.5 469,-27.5"/>
<text text-anchor="middle" x="480" y="-40.7" font-family="Times,serif" font-size="14.00">e</text>
<polyline fill="none" stroke="black" points="491,-28 491,-63.5"/>
<text text-anchor="middle" x="532.75" y="-40.7" font-family="Times,serif" font-size="14.00">data: 5.0000</text>
</g>
<!-- 4421849488+&#45;&gt;4421849488 -->
<g id="edge2" class="edge">
<title>4421849488+&#45;&gt;4421849488</title>
<path fill="none" stroke="black" d="M433.38,-45.5C440.6,-45.5 448.75,-45.5 457.1,-45.5"/>
<polygon fill="black" stroke="black" points="457.02,-49 467.02,-45.5 457.02,-42 457.02,-49"/>
</g>
<!-- 4421850592 -->
<g id="node7" class="node">
<title>4421850592</title>
<polygon fill="none" stroke="black" points="0,-28.5 0,-64.5 106.25,-64.5 106.25,-28.5 0,-28.5"/>
<text text-anchor="middle" x="11.38" y="-41.7" font-family="Times,serif" font-size="14.00">b</text>
<polyline fill="none" stroke="black" points="22.75,-29 22.75,-64.5"/>
<text text-anchor="middle" x="64.5" y="-41.7" font-family="Times,serif" font-size="14.00">data: 3.0000</text>
</g>
<!-- 4421850592&#45;&gt;4421850688* -->
<g id="edge6" class="edge">
<title>4421850592&#45;&gt;4421850688*</title>
<path fill="none" stroke="black" d="M106.51,-58.89C115.27,-60.97 124.18,-63.07 132.41,-65.02"/>
<polygon fill="black" stroke="black" points="131.48,-68.4 142.02,-67.29 133.09,-61.59 131.48,-68.4"/>
</g>
</g>
</svg>
